<?xml version="1.0" standalone="no"?>
<!DOCTYPE svg PUBLIC "-//W3C//DTD SVG 20010904//EN"
 "http://www.w3.org/TR/2001/REC-SVG-20010904/DTD/svg10.dtd">
<svg version="1.0" xmlns="http://www.w3.org/2000/svg"
 width="300.000000pt" height="300.000000pt" viewBox="0 0 300.000000 300.000000"
 preserveAspectRatio="xMidYMid meet">
<metadata>
Created by potrace 1.10, written by Peter Selinger 2001-2011
</metadata>
<g transform="translate(0.000000,300.000000) scale(0.050000,-0.050000)"
fill="#000000" stroke="none">
<path d="M2620 5856 c-139 -15 -159 -20 -476 -116 -113 -34 -201 -69 -195 -79
6 -9 -3 -22 -21 -29 -44 -17 -52 -15 -38 8 7 11 -1 14 -19 8 -17 -7 -31 -25
-31 -40 0 -15 -10 -28 -21 -28 -12 0 -16 9 -9 20 7 11 -1 14 -19 8 -17 -7 -31
-25 -31 -40 0 -16 -18 -26 -45 -24 -55 4 -335 -162 -335 -198 0 -14 -18 -26
-41 -26 -22 0 -45 -13 -52 -30 -6 -16 -20 -30 -31 -30 -32 0 -235 -182 -230
-206 2 -12 -9 -23 -26 -24 -16 -1 -28 -12 -26 -24 3 -12 -10 -34 -28 -49 -24
-19 -29 -20 -19 -2 38 62 -13 15 -96 -90 -50 -63 -101 -126 -112 -140 -11 -14
-14 -25 -6 -25 8 0 -3 -13 -24 -29 -22 -17 -33 -30 -25 -30 8 -1 -6 -22 -30
-49 -51 -55 -174 -282 -174 -321 0 -15 -14 -32 -31 -39 -17 -6 -26 -20 -20
-31 7 -11 3 -38 -8 -60 -12 -23 -30 -59 -41 -81 -11 -22 -20 -53 -20 -70 0
-16 -8 -30 -18 -30 -22 0 -117 -351 -139 -520 -29 -209 -13 -847 25 -1020 45
-206 102 -383 118 -367 8 8 14 -6 14 -30 0 -43 5 -57 67 -175 17 -34 26 -68
19 -75 -7 -7 -2 -13 11 -13 13 0 23 -13 23 -29 0 -36 176 -338 202 -348 10 -3
18 -18 18 -33 0 -15 22 -45 49 -66 27 -21 44 -44 38 -51 -21 -20 497 -520 610
-589 58 -36 100 -54 93 -40 -7 14 0 10 15 -9 16 -19 36 -28 44 -20 8 8 11 3 8
-12 -10 -37 301 -205 353 -191 32 9 34 7 10 -10 -32 -23 2 -32 86 -25 19 1 40
-9 46 -24 6 -17 31 -24 64 -18 42 6 48 4 24 -13 -34 -24 -1 -31 110 -24 43 3
52 -2 32 -15 -39 -27 214 -81 503 -107 347 -32 1061 47 973 107 -19 13 -5 15
42 7 46 -8 61 -6 43 6 -34 23 57 51 105 32 22 -8 32 -1 32 22 0 25 11 32 42
24 53 -14 102 4 85 31 -9 14 -1 17 21 9 59 -23 504 231 478 273 -7 11 -2 13
11 5 30 -19 145 70 360 277 158 152 422 471 390 471 -8 0 3 13 24 29 22 17 31
30 21 30 -10 1 -2 19 18 41 20 22 28 40 18 40 -10 0 -8 7 5 15 36 23 187 318
187 364 0 23 7 41 16 41 8 0 27 43 41 95 15 52 32 109 38 125 6 17 14 48 18
70 4 22 16 58 26 80 85 177 84 1248 -1 1339 -10 10 -18 44 -18 74 0 30 -9 60
-20 67 -11 7 -20 43 -20 81 0 38 -9 69 -20 69 -11 0 -20 23 -20 50 0 28 -9 50
-20 50 -11 0 -20 13 -20 29 0 35 -80 195 -106 213 -9 7 -16 19 -14 26 9 31
-46 130 -66 118 -13 -8 -16 0 -8 21 9 22 2 33 -19 33 -20 0 -27 11 -20 30 7
17 3 30 -8 30 -10 0 -18 7 -16 15 6 30 -28 85 -46 73 -10 -6 -16 -2 -12 9 6
26 -161 243 -187 243 -11 0 -16 8 -10 17 13 21 -55 87 -75 73 -7 -5 -8 -4 -3
4 12 16 -109 146 -136 146 -10 0 -35 21 -56 48 -20 26 -60 53 -89 60 -28 7
-46 21 -39 32 9 15 -53 62 -90 68 -5 1 -8 7 -6 13 8 25 -315 197 -349 186 -25
-8 -28 -6 -9 8 19 13 12 24 -27 42 -37 17 -48 17 -37 1 8 -14 3 -19 -14 -13
-15 5 -26 19 -24 31 3 11 -9 25 -26 32 -17 7 -25 3 -18 -8 7 -11 -2 -20 -19
-20 -18 0 -37 13 -43 28 -6 16 -28 24 -54 18 -32 -7 -37 -4 -17 10 40 28 -311
137 -563 175 -129 19 -633 22 -794 5z m915 -215 c2133 -436 2893 -3102 1311
-4601 -1307 -1239 -3448 -860 -4253 752 -1001 2003 752 4297 2942 3849z"/>
<path d="M2685 5506 c-52 -10 -53 -15 -21 -249 21 -158 28 -177 65 -177 78 1
86 21 67 170 -33 245 -38 270 -52 267 -8 -1 -34 -6 -59 -11z"/>
<path d="M2985 5484 c-108 -82 -98 -296 16 -354 70 -36 239 -39 283 -5 53 41
69 195 20 195 -21 0 -67 6 -101 13 -76 15 -95 -60 -21 -79 52 -14 40 -62 -18
-70 -79 -12 -124 30 -124 115 0 114 119 200 153 111 13 -34 118 -41 137 -10
56 90 -243 163 -345 84z"/>
<path d="M2424 5464 c-58 -9 -71 -42 -46 -110 23 -59 18 -64 -71 -83 -59 -12
-63 -10 -76 60 -13 68 -79 88 -129 38 -8 -9 90 -388 104 -402 34 -33 117 38
104 88 -26 96 -21 111 38 127 75 21 85 14 101 -74 12 -66 18 -71 67 -58 74 18
73 8 23 204 -55 214 -58 218 -115 210z"/>
<path d="M3509 5453 c-26 -71 -109 -379 -105 -384 45 -45 125 -12 142 57 18
73 22 76 81 63 83 -18 83 -18 57 -104 -25 -82 -17 -98 55 -108 49 -7 182 348
144 387 -44 46 -110 24 -127 -41 -16 -60 -24 -65 -72 -53 -80 19 -94 41 -67
101 13 29 19 59 14 68 -17 27 -114 38 -122 14z"/>
<path d="M4231 5109 c-45 -46 -38 -111 19 -189 54 -73 66 -140 24 -140 -37 0
-74 42 -74 83 0 38 -77 101 -103 85 -43 -27 -15 -126 53 -186 182 -159 366
-39 232 151 -34 49 -62 98 -62 109 0 37 69 9 77 -32 15 -79 123 -122 123 -49
0 132 -205 251 -289 168z"/>
<path d="M1521 5043 c-210 -199 43 -491 279 -323 107 76 132 151 76 232 -56
82 -70 83 -152 13 -74 -63 -64 -128 12 -87 68 36 79 -17 16 -71 -69 -59 -83
-59 -143 6 -83 90 -50 219 50 193 39 -10 111 62 92 93 -32 50 -148 22 -230
-56z"/>
<path d="M2800 5000 c-20 -13 42 -19 190 -17 197 3 208 4 100 18 -173 21 -256
21 -290 -1z"/>
<path d="M2585 4966 c-36 -5 -65 -15 -65 -23 0 -8 34 -11 75 -7 89 10 83 -8
-7 -22 -34 -5 -81 -20 -104 -32 -23 -12 -58 -21 -78 -20 -23 1 -13 11 29 30
36 15 65 33 65 40 0 14 -117 -11 -159 -33 -17 -9 -80 -32 -139 -51 -123 -38
-341 -194 -344 -244 -1 -20 -5 -24 -11 -10 -14 34 -151 -59 -266 -181 -101
-108 -320 -394 -315 -412 1 -6 -13 -35 -33 -65 -22 -33 -32 -72 -25 -100 6
-25 6 -35 0 -21 -26 58 -51 21 -40 -60 8 -54 6 -71 -5 -45 -15 36 -73 -22 -69
-70 1 -12 -1 -17 -41 -150 -82 -274 -75 -970 10 -970 11 0 14 -9 7 -21 -20
-31 32 -219 84 -303 l46 -75 -104 -30 c-57 -17 -105 -31 -108 -31 -2 0 -30 43
-61 95 l-57 95 -10 -110 -10 -110 -93 -20 c-128 -27 -133 -40 -27 -70 112 -31
114 -34 92 -148 -20 -110 -2 -116 69 -22 61 79 80 83 178 36 94 -44 108 -22
41 65 l-55 72 77 79 c80 82 106 80 116 -11 3 -30 16 -61 30 -70 13 -8 17 -30
9 -51 -9 -25 -7 -32 10 -22 14 9 23 0 23 -24 0 -22 15 -51 34 -67 22 -18 29
-19 19 -2 -10 17 -5 21 16 13 17 -7 31 -18 31 -25 0 -7 36 -53 80 -103 44 -49
85 -106 91 -125 7 -19 21 -35 32 -35 27 0 277 -186 277 -206 0 -9 9 -11 20 -4
11 7 20 3 20 -9 0 -11 12 -21 26 -21 15 0 44 -16 66 -35 59 -52 111 -78 188
-95 38 -8 82 -22 99 -31 53 -28 168 -62 241 -72 39 -5 113 -17 166 -28 229
-46 735 2 943 89 42 18 93 32 113 32 21 0 38 8 38 18 0 10 18 14 40 8 22 -6
40 -1 40 12 0 12 11 20 25 17 14 -3 23 5 21 18 -3 14 11 19 35 13 30 -8 37 -3
28 20 -9 24 -2 28 33 19 30 -8 40 -4 30 12 -9 15 1 23 29 23 30 0 40 9 32 30
-7 18 0 30 18 30 16 0 29 8 29 19 0 10 17 24 38 30 65 21 442 428 442 478 0
13 46 73 100 131 51 56 104 145 92 157 -7 6 -1 24 11 39 12 15 18 32 12 38 -6
6 11 66 37 134 27 67 53 168 60 223 6 56 13 119 16 141 7 59 -13 83 -30 39
-12 -30 -15 -22 -16 31 -1 53 3 63 18 40 18 -27 22 -27 40 0 35 51 -18 625
-61 669 -11 10 -19 37 -19 58 0 22 -13 54 -28 71 -15 18 -32 64 -37 103 -5 39
-33 109 -62 155 -29 46 -53 88 -53 95 0 121 -559 668 -653 637 -31 -10 -32 -8
-7 10 26 20 25 27 -10 51 -22 16 -76 56 -121 89 -44 33 -130 73 -190 89 -60
16 -134 39 -165 51 -68 27 -74 27 -74 4 0 -9 20 -23 44 -29 24 -6 39 -17 32
-24 -12 -12 -121 16 -206 54 -31 14 -26 16 25 11 54 -6 98 20 50 29 -61 11
-181 6 -173 -6 5 -9 -126 -15 -291 -15 -166 1 -306 10 -312 20 -6 10 -18 17
-25 15 -8 -2 -43 -7 -79 -11z m759 -67 c58 -12 150 -36 203 -53 72 -23 101
-25 112 -8 10 16 29 17 63 4 l48 -19 -50 -3 c-41 -3 -32 -11 50 -49 55 -26
109 -41 120 -35 11 6 13 3 5 -6 -17 -19 181 -135 205 -120 8 5 31 -5 52 -22
36 -28 35 -29 -12 -8 l-50 22 47 -41 c26 -22 57 -35 68 -28 12 7 15 4 8 -8
-17 -28 39 -72 69 -54 14 9 19 7 12 -5 -15 -24 153 -192 173 -172 8 8 10 1 3
-16 -7 -18 7 -47 33 -69 24 -22 37 -28 29 -14 -8 14 -4 25 9 25 13 0 18 -14
11 -33 -8 -19 7 -58 36 -97 747 -978 198 -2565 -1013 -2929 -1762 -530 -3186
1423 -2152 2951 30 46 49 89 41 97 -8 8 -5 12 6 8 26 -7 320 287 313 313 -4
11 0 14 8 6 8 -8 54 13 102 46 403 277 1001 408 1451 317z m1627 -1685 c7 -46
3 -74 -10 -74 -11 0 -21 38 -21 83 0 99 14 94 31 -9z m-3924 -334 c9 -87 6
-120 -7 -100 -17 27 -30 258 -13 238 4 -4 13 -66 20 -138z"/>
<path d="M2657 4830 c-1749 -332 -2068 -2725 -467 -3501 1199 -581 2583 241
2663 1581 70 1181 -1029 2142 -2196 1920z m254 -132 c8 -12 2 -30 -12 -39 -18
-11 -25 -50 -21 -118 4 -81 -1 -101 -27 -101 -22 0 -31 19 -31 68 0 90 -17
132 -54 132 -46 0 -19 47 35 62 74 21 95 20 110 -4z m109 -28 c0 -31 11 -50
30 -50 19 0 30 19 30 52 0 32 9 48 25 43 44 -15 36 -275 -9 -275 -27 0 -36 15
-36 60 0 33 -9 60 -20 60 -11 0 -20 -27 -20 -60 0 -40 -10 -60 -30 -60 -24 0
-30 29 -30 140 0 111 6 140 30 140 19 0 30 -19 30 -50z m275 17 c25 -6 45 -25
45 -42 0 -20 -13 -26 -40 -19 -26 7 -40 0 -40 -18 0 -15 14 -28 30 -28 17 0
30 -14 30 -31 0 -22 -12 -28 -38 -20 -23 8 -42 1 -49 -17 -7 -20 4 -32 33 -36
71 -10 56 -67 -16 -59 -87 9 -92 21 -68 159 22 125 31 133 113 111z m-675 -49
c0 -12 -18 -26 -40 -32 -57 -15 -50 -46 10 -46 31 0 50 -11 50 -30 0 -16 -14
-30 -32 -30 -24 0 -28 -13 -19 -57 21 -94 -43 -101 -67 -7 -47 176 -48 188
-20 206 40 25 118 22 118 -4z m973 -163 l-13 -145 60 108 c73 133 75 135 102
108 15 -15 8 -46 -23 -107 -42 -83 -42 -87 -7 -113 25 -18 30 -32 15 -47 -31
-31 -207 58 -207 105 0 39 -30 48 -50 16 -16 -25 -70 -26 -70 -1 0 49 129 221
166 221 37 0 39 -9 27 -145z m-1151 55 c75 -132 56 -210 -51 -210 -87 0 -150
215 -76 259 53 31 89 17 127 -49z m-302 -91 c0 -11 -13 -25 -30 -32 -51 -19
-34 -52 20 -39 37 9 50 5 50 -18 0 -16 -9 -30 -20 -30 -11 0 -20 -13 -20 -30
0 -35 10 -37 60 -10 58 31 75 -19 21 -63 -68 -55 -89 -47 -160 67 l-65 105 44
35 c49 40 100 47 100 15z m1780 0 c0 -12 -22 -54 -50 -95 -84 -124 -11 -176
118 -84 136 98 174 59 89 -92 -72 -128 -54 -138 53 -28 81 83 155 83 80 0 -44
-48 -24 -78 31 -44 115 72 100 -4 -23 -114 -84 -75 -99 -82 -111 -52 -8 23 -1
45 20 60 35 26 45 70 16 70 -9 0 -33 -18 -53 -40 -47 -52 -136 19 -117 95 11
44 -19 63 -42 26 -12 -19 -189 77 -190 104 -2 34 125 215 151 215 15 0 28 -9
28 -21z m-1901 -184 c79 -83 102 -135 60 -135 -11 0 -43 25 -70 55 l-50 55 41
-73 c50 -88 26 -113 -53 -53 l-57 44 49 -55 c37 -40 43 -59 25 -77 -24 -24
-181 128 -183 177 -2 51 52 68 89 27 51 -57 77 -50 38 10 -79 121 3 140 111
25z m713 -3 c11 -30 140 -41 398 -35 179 5 207 -7 251 -103 54 -119 51 -152
-16 -153 -570 -3 -569 -2 -483 -376 45 -195 78 -239 78 -105 0 44 9 80 20 80
11 0 20 -36 20 -80 0 -164 43 -98 81 124 27 161 77 249 78 136 0 -38 -13 -114
-29 -168 -54 -179 -26 -268 35 -112 18 44 42 80 53 80 31 0 27 -28 -13 -98
-84 -146 7 -109 137 57 71 88 140 161 154 161 40 0 -6 -74 -129 -204 -150
-158 -141 -218 15 -94 58 45 78 53 78 30 0 -17 -22 -46 -50 -64 -46 -30 -70
-89 -35 -88 8 1 81 50 163 110 81 61 160 110 176 110 47 0 10 -36 -145 -141
-158 -106 -173 -131 -109 -189 38 -34 45 -33 211 47 179 86 235 101 218 58 -6
-14 -75 -51 -154 -83 -241 -97 -280 -149 -67 -90 71 20 82 17 128 -29 l51 -51
-65 -296 c-35 -163 -77 -336 -93 -385 -16 -48 -29 -118 -29 -154 0 -81 -36
-102 -299 -178 -103 -29 -217 -66 -253 -81 -97 -41 -167 -35 -473 38 -329 79
-309 62 -356 307 -21 108 -67 321 -102 472 -80 344 -50 406 160 333 145 -50
96 1 -83 89 -107 51 -194 103 -194 113 0 34 35 23 220 -70 205 -103 200 -102
200 -54 0 19 -27 51 -60 71 -33 19 -60 44 -60 54 0 29 25 22 80 -21 53 -41
100 -52 100 -22 0 9 -63 69 -140 132 -77 63 -140 123 -140 132 0 42 58 11 175
-94 143 -127 221 -144 135 -28 -63 85 -25 114 41 30 95 -118 86 -34 -10 103
-96 135 -124 207 -82 207 10 0 60 -67 112 -150 92 -148 170 -208 129 -99 -49
127 -2 137 53 13 24 -53 35 -64 41 -40 10 41 -69 334 -100 373 -12 15 -20 55
-18 90 2 35 -13 135 -34 223 -21 87 -34 166 -29 175 15 24 47 17 59 -13z
m-217 -237 l10 -188 -105 -103 c-58 -57 -115 -104 -128 -104 -32 -1 -99 -60
-147 -130 -23 -33 -78 -99 -123 -146 -79 -83 -103 -149 -63 -174 12 -7 15 -76
7 -172 -13 -166 39 -478 79 -478 11 0 14 -13 8 -29 -21 -55 82 -486 135 -564
54 -79 52 -107 -7 -107 -20 0 -65 -33 -101 -72 -110 -126 -225 -36 -131 102
61 90 64 133 14 206 -225 330 -325 548 -347 754 -31 286 -17 410 65 602 21 50
39 107 39 125 0 83 280 416 443 527 53 36 97 76 97 88 0 46 186 99 228 65 9
-8 22 -99 27 -202z m1172 130 c127 -68 119 -62 256 -182 62 -55 130 -104 151
-111 23 -7 48 -47 64 -102 14 -49 32 -90 39 -90 27 0 123 -260 123 -331 0 -25
13 -59 29 -75 16 -16 24 -35 17 -41 -6 -7 3 -18 20 -24 29 -11 29 -21 5 -86
-15 -40 -32 -141 -37 -223 -18 -273 -100 -502 -248 -697 -36 -47 -66 -99 -66
-115 0 -15 -10 -28 -22 -28 -33 0 -7 -112 42 -180 56 -78 50 -114 -24 -160
l-65 -39 -74 80 c-59 64 -88 79 -145 79 -90 0 -90 15 -1 139 39 55 74 120 78
145 3 25 11 60 17 76 17 46 90 353 124 516 32 156 37 309 12 373 -9 22 -6 64
5 94 22 58 -24 197 -65 197 -10 0 -51 46 -91 102 -46 63 -84 97 -101 91 -17
-7 -54 30 -101 99 -40 61 -86 116 -101 122 -39 14 -35 54 14 150 36 70 39 96
23 179 -23 115 -17 117 122 42z m-1878 -97 c111 -51 140 -103 52 -93 -39 5
-43 -1 -31 -55 19 -85 -11 -75 -107 39 -129 153 -98 193 86 109z m-109 -153
c115 -75 118 -107 8 -101 l-78 4 55 -29 c57 -31 69 -58 36 -79 -38 -23 -246
134 -216 163 19 20 44 22 96 8 63 -18 66 -17 30 10 -21 16 -46 29 -55 29 -9 0
-16 14 -16 30 0 45 30 37 140 -35z m2695 -42 l-65 -56 77 31 c112 46 129 23
48 -63 l-44 -48 56 22 c73 27 93 27 93 -4 0 -14 -47 -42 -105 -63 -58 -20
-115 -41 -127 -46 -46 -17 -48 57 -3 97 45 40 34 41 -55 5 -16 -7 -31 -2 -33
10 -2 12 -4 30 -5 40 -4 35 195 182 212 157 10 -16 -7 -45 -49 -82z m-2943
-222 c-15 -60 20 -88 38 -30 17 51 60 40 60 -16 0 -60 30 -81 43 -29 13 49 67
61 67 15 0 -16 -10 -51 -23 -79 -24 -53 -21 -53 -191 21 l-83 37 27 65 c33 77
80 89 62 16z m3148 -19 c0 -15 -18 -32 -40 -38 -67 -17 -48 -61 20 -47 43 9
60 4 60 -15 0 -27 -235 -124 -254 -105 -23 23 14 73 53 73 24 0 41 13 41 32 0
22 -12 29 -35 23 -19 -6 -48 -13 -64 -18 -83 -21 -35 58 53 87 122 41 166 43
166 8z m-3115 -171 c80 -17 115 -33 115 -55 0 -24 -15 -28 -72 -17 -84 16 -90
-30 -7 -49 59 -14 67 -73 9 -64 -137 19 -230 51 -230 78 0 24 14 28 60 19 45
-9 60 -5 60 18 0 16 -17 29 -39 29 -21 0 -44 9 -51 20 -14 23 6 64 26 53 8 -5
66 -19 129 -32z m3167 -36 c104 -69 7 -185 -154 -185 -73 0 -121 79 -78 129
41 50 188 85 232 56z m-3312 -175 c0 -20 21 -30 65 -30 96 -1 155 -21 155 -54
0 -23 -21 -26 -110 -15 -76 9 -110 7 -110 -9 0 -12 -13 -22 -30 -22 -22 0 -30
22 -30 80 0 58 8 80 30 80 17 0 30 -13 30 -30z m3381 -183 c22 -59 -22 -118
-73 -99 -36 14 -36 16 -3 40 44 33 25 52 -55 52 -78 0 -100 -19 -57 -50 42
-31 19 -69 -33 -56 -58 15 -76 105 -28 140 61 45 230 27 249 -27z m-3181 -103
c0 -21 -28 -51 -65 -71 l-65 -33 63 11 c38 7 69 2 78 -12 23 -38 -32 -58 -156
-59 -135 0 -157 41 -50 89 l65 30 -70 -5 c-133 -8 -87 54 50 68 66 6 127 13
135 15 8 1 15 -13 15 -33z m3165 -77 c57 -34 -21 -181 -83 -156 -17 8 -71 12
-119 10 -101 -4 -110 42 -11 59 73 13 76 48 3 56 -33 4 -55 19 -55 37 0 29
214 24 265 -6z m-3145 -135 c0 -16 -25 -33 -55 -39 -178 -33 -200 -34 -212 -4
-8 22 8 33 63 42 41 7 83 15 94 19 51 18 110 8 110 -18z m3055 -66 c70 -12 84
-53 44 -128 -26 -48 -65 -29 -48 24 15 48 -22 50 -49 3 -21 -38 -51 -21 -52
30 0 17 -11 35 -25 40 -14 5 -25 -9 -25 -32 0 -22 -10 -43 -23 -47 -13 -5 23
-38 80 -74 109 -70 113 -76 85 -120 -16 -25 -247 -4 -277 26 -18 18 18 52 56
52 42 0 52 29 18 51 -12 7 -16 39 -9 76 28 136 29 138 97 124 35 -8 92 -19
128 -25z m-2997 -156 c15 -33 37 -77 47 -97 12 -24 11 -45 -3 -59 -35 -35 -26
-67 18 -66 27 1 57 -26 91 -82 l50 -84 -113 -72 c-62 -40 -114 -70 -116 -66
-66 104 -70 115 -49 128 12 7 31 -1 41 -20 26 -47 61 -19 35 29 -23 44 16 56
55 17 33 -33 75 -2 45 33 -12 15 -16 38 -8 50 9 16 2 20 -23 12 -174 -50 -214
-55 -231 -30 -25 41 -24 42 83 127 117 93 106 108 -37 51 -111 -44 -143 -27
-143 75 0 114 208 157 258 54z m2784 -199 c64 -37 93 -43 113 -27 44 37 54 -1
19 -74 -36 -75 -74 -93 -74 -34 0 23 -33 52 -90 80 -87 42 -105 63 -77 91 18
17 11 20 109 -36z m-42 -136 c109 -72 115 -85 68 -152 -23 -32 -39 -40 -53
-26 -15 15 -14 30 3 50 14 17 16 34 5 41 -10 6 -30 -2 -43 -18 -38 -46 -66
-36 -52 19 14 54 -21 91 -40 42 -14 -34 -68 -43 -68 -10 0 22 59 119 73 119 4
0 52 -29 107 -65z m-2493 -103 c6 -16 -8 -41 -32 -57 -26 -17 -36 -37 -26 -53
11 -19 24 -16 54 11 21 19 59 38 83 41 31 4 36 1 17 -11 -14 -10 -25 -24 -23
-33 3 -9 -39 -50 -92 -92 l-97 -76 -46 42 c-57 54 -58 108 0 138 24 14 61 45
81 71 42 54 65 59 81 19z m2352 -20 c27 -34 -1 -58 -47 -40 -18 7 -32 2 -32
-11 0 -14 30 -21 76 -18 89 5 124 -12 124 -60 0 -48 -39 -83 -94 -83 -59 0
-59 35 -1 61 36 16 30 17 -32 8 -87 -13 -133 14 -133 79 0 82 89 123 139 64z
m-1919 -362 c0 -19 -19 -30 -50 -30 -31 0 -50 -11 -50 -30 0 -19 19 -30 52
-30 62 0 55 -47 -9 -56 -61 -9 -55 -64 7 -64 55 0 68 -34 20 -53 -96 -36 -197
170 -136 278 17 30 166 17 166 -15z m176 6 c33 -33 30 -76 -6 -76 -16 0 -30 9
-30 20 0 11 -16 20 -35 19 -26 0 -18 -14 32 -55 87 -73 86 -170 -3 -180 -31
-4 -69 4 -85 17 -38 31 -37 99 1 99 17 0 30 -13 30 -30 0 -16 14 -30 30 -30
45 0 36 22 -33 80 -52 43 -61 62 -50 106 15 59 102 77 149 30z m224 -6 c0 -16
-13 -30 -30 -30 -23 0 -30 -27 -30 -120 0 -93 -7 -120 -30 -120 -23 0 -30 27
-30 120 0 93 -7 120 -30 120 -16 0 -30 14 -30 30 0 22 23 30 90 30 67 0 90 -8
90 -30z m191 -4 c86 -86 15 -265 -106 -266 l-65 0 0 150 0 150 69 0 c37 0 83
-15 102 -34z m349 -116 c0 -120 -6 -150 -30 -150 -23 0 -30 24 -30 100 0 76
-7 100 -30 100 -69 0 -3 85 75 98 8 1 15 -65 15 -148z m216 126 c75 -75 13
-286 -80 -273 -52 8 -77 77 -27 77 17 0 31 -10 31 -21 0 -12 9 -16 20 -9 34
21 22 50 -20 50 -58 0 -93 85 -64 150 25 54 98 68 140 26z m224 10 c0 -8 -13
-51 -29 -95 -15 -45 -34 -106 -40 -136 -14 -64 -71 -75 -71 -14 0 22 14 73 30
112 38 91 39 87 -20 87 -31 0 -50 11 -50 30 0 22 23 30 90 30 50 0 90 -6 90
-14z m176 -57 c4 -42 -7 -73 -35 -98 -52 -47 -52 -71 -1 -71 48 0 53 -31 8
-48 -123 -47 -166 20 -78 124 48 57 65 104 37 104 -7 0 -24 -16 -38 -35 -31
-42 -63 9 -41 66 24 62 141 29 148 -42z m-796 -189 c0 -22 -13 -40 -30 -40
-17 0 -30 18 -30 40 0 22 13 40 30 40 17 0 30 -18 30 -40z"/>
<path d="M2340 4511 c0 -41 43 -131 63 -131 24 0 21 49 -6 109 -26 56 -57 68
-57 22z"/>
<path d="M2762 4105 c3 -77 28 -158 41 -135 33 57 35 129 6 159 -43 43 -49 40
-47 -24z"/>
<path d="M2743 3289 c-108 -55 -223 -183 -223 -249 0 -39 317 -140 437 -140
133 0 463 103 463 144 0 206 -440 365 -677 245z"/>
<path d="M3390 2949 c-132 -38 -275 -79 -318 -90 l-77 -22 12 -373 c7 -206 12
-399 13 -429 0 -72 19 -71 291 18 l223 74 85 371 c133 583 145 559 -229 451z"/>
<path d="M2235 2947 c24 -138 146 -724 166 -791 17 -64 32 -77 95 -92 133 -32
353 -85 394 -95 44 -12 41 -64 33 646 -3 240 31 207 -326 304 -357 97 -374 98
-362 28z"/>
<path d="M4515 3337 c-63 -23 -73 -57 -16 -57 56 0 141 36 141 60 0 25 -52 24
-125 -3z"/>
<path d="M1455 2486 c-19 -5 -35 -23 -35 -40 0 -19 11 -26 32 -18 17 7 53 18
80 24 26 7 48 20 48 30 0 18 -63 20 -125 4z"/>
<path d="M2780 1570 c0 -67 8 -90 30 -90 22 0 30 23 30 90 0 67 -8 90 -30 90
-22 0 -30 -23 -30 -90z"/>
<path d="M1191 4768 c-33 -49 -33 -53 2 -78 166 -116 164 -138 -11 -107 -116
20 -129 19 -166 -19 -51 -50 -50 -50 131 -200 l148 -123 38 42 c37 41 36 42
-53 121 l-90 79 140 -13 c129 -12 144 -9 180 31 l40 43 -62 53 c-34 29 -108
91 -163 138 l-100 85 -34 -52z"/>
<path d="M4608 4801 c-211 -86 -171 -421 51 -421 93 0 104 11 76 73 -17 38
-33 47 -67 38 -104 -26 -135 75 -49 158 76 73 161 60 161 -25 0 -66 74 -125
102 -81 80 126 -125 318 -274 258z"/>
<path d="M4876 4357 l-175 -101 30 -59 c32 -60 36 -60 130 5 51 35 52 35 85
-21 44 -75 45 -75 -31 -113 -36 -18 -68 -35 -71 -38 -11 -9 43 -110 59 -110
32 0 355 191 356 210 0 69 -58 99 -122 62 -65 -39 -66 -39 -118 52 -16 28 -8
42 36 69 30 19 59 38 63 41 12 8 -42 106 -56 105 -7 -1 -91 -47 -186 -102z"/>
<path d="M851 4328 c-19 -28 -31 -54 -28 -57 76 -61 341 -211 356 -201 83 51
63 86 -110 199 -200 130 -176 124 -218 59z"/>
<path d="M726 4047 c-51 -43 -136 -246 -112 -267 18 -16 341 -140 364 -140 35
0 104 252 84 305 -43 112 -250 175 -336 102z m190 -118 c64 -45 63 -158 -1
-138 -159 48 -198 77 -165 124 38 52 103 58 166 14z"/>
<path d="M5085 3880 c-218 -132 -53 -470 185 -380 95 36 150 99 150 172 0 207
-167 311 -335 208z m211 -104 c73 -73 -48 -200 -157 -166 -42 14 -72 93 -49
130 33 53 166 76 206 36z"/>
<path d="M712 3542 c-182 -33 -206 -50 -211 -144 -1 -33 367 -263 388 -242 22
22 10 110 -18 132 -35 27 -14 162 26 162 30 0 62 48 63 95 0 41 -9 41 -248 -3z
m68 -139 c0 -57 -19 -63 -93 -27 -59 27 -64 35 -33 47 70 28 126 19 126 -20z"/>
<path d="M5220 3374 c-208 -71 -147 -414 74 -414 141 0 226 79 226 210 0 177
-126 263 -300 204z m190 -192 c0 -116 -194 -143 -222 -31 -19 77 23 112 130
105 90 -6 92 -7 92 -74z"/>
<path d="M475 3085 c-5 -8 -4 -90 1 -183 l8 -167 151 12 c83 7 177 13 208 13
l57 0 0 170 c0 168 -1 170 -50 170 -47 0 -50 -6 -50 -110 0 -97 -5 -110 -40
-110 -35 0 -40 13 -40 100 0 92 -4 100 -48 100 -44 0 -46 -6 -37 -92 8 -65 3
-97 -16 -109 -45 -28 -59 -1 -59 112 0 102 -52 159 -85 94z"/>
<path d="M5092 2766 c-8 -64 -19 -141 -25 -173 -10 -52 -7 -56 46 -50 53 6 57
14 63 101 l6 94 104 -13 c198 -25 223 -21 230 39 7 62 -2 66 -224 87 -77 7
-150 17 -163 22 -16 6 -28 -28 -37 -107z"/>
<path d="M853 2685 c-37 -9 -38 -44 -8 -189 3 -12 -62 -37 -145 -55 -143 -32
-193 -91 -132 -156 5 -4 394 78 408 86 9 6 -59 298 -73 311 -7 6 -30 7 -50 3z"/>
<path d="M5225 2446 c-58 -108 -63 -111 -177 -76 -124 37 -131 26 -39 -63 82
-80 83 -68 -7 -206 -35 -54 -26 -54 115 2 66 27 67 26 145 -63 68 -78 78 -83
70 -40 -35 190 -40 174 69 210 117 39 114 60 -11 79 -96 14 -103 25 -115 171
l-5 70 -45 -84z"/>
<path d="M4807 1871 c-23 -17 -61 -61 -83 -99 l-41 -68 142 -95 143 -94 46 57
c134 165 -41 417 -207 299z m166 -99 c56 -48 47 -152 -13 -152 -23 0 -180 100
-180 114 0 88 110 110 193 38z"/>
<path d="M4626 1638 c-17 -17 -15 -43 5 -102 26 -72 25 -78 -6 -68 -109 32
-139 33 -163 5 -27 -33 -13 -41 128 -64 44 -8 105 -37 135 -65 81 -76 126 -29
50 51 -31 33 -64 99 -78 160 -25 109 -34 120 -71 83z"/>
<path d="M1192 1587 c-100 -100 -77 -232 50 -298 60 -31 158 14 158 72 0 35
-75 104 -98 90 -19 -11 -19 -21 0 -44 19 -22 19 -34 0 -53 -36 -35 -130 74
-104 122 65 122 188 134 217 20 19 -71 54 -94 72 -46 54 139 -183 248 -295
137z"/>
<path d="M4364 1376 c-18 -18 -14 -34 20 -70 l44 -47 -52 -52 -52 -52 -34 53
c-35 52 -78 67 -98 35 -11 -18 177 -267 211 -280 41 -16 39 62 -3 107 l-46 49
48 40 c63 52 68 51 119 -20 34 -48 49 -56 70 -38 23 19 9 48 -77 160 -113 149
-115 150 -150 115z"/>
<path d="M1482 1289 c-78 -89 -79 -155 -4 -231 111 -110 302 -20 302 144 0
153 -191 210 -298 87z m208 -29 c44 -49 20 -119 -58 -170 -108 -72 -182 64
-89 164 54 57 99 59 147 6z"/>
<path d="M1822 1027 c-48 -82 -83 -151 -79 -154 60 -45 202 -112 217 -103 35
22 22 42 -50 76 -85 41 -86 59 -10 174 66 99 73 131 34 146 -15 6 -59 -48
-112 -139z"/>
<path d="M3715 999 c-29 -18 -35 -51 -35 -201 0 -162 4 -180 35 -174 20 4 38
28 41 57 8 65 122 118 149 69 19 -34 95 -41 95 -10 0 53 -250 279 -285 259z
m113 -182 c-28 -46 -89 -16 -84 43 l4 59 46 -42 c24 -24 40 -51 34 -60z"/>
<path d="M2143 953 c-101 -107 -58 -272 78 -303 67 -16 166 58 120 88 -19 13
-38 13 -54 -1 -43 -35 -116 -12 -124 40 -18 128 102 219 162 123 24 -39 95
-56 95 -23 0 110 -195 163 -277 76z"/>
<path d="M2579 892 c-146 -47 -152 -264 -8 -324 124 -52 229 20 229 157 0 146
-86 211 -221 167z m142 -83 c37 -45 2 -170 -54 -190 -93 -34 -160 81 -106 182
25 48 123 52 160 8z"/>
<path d="M3370 907 c-136 -28 -126 -7 -92 -196 l31 -171 71 12 c163 29 216 99
178 236 -27 96 -93 138 -188 119z m111 -108 c47 -88 10 -179 -73 -179 -35 0
-46 15 -57 75 -7 41 -18 90 -23 108 -19 65 118 61 153 -4z"/>
<path d="M3098 865 c-1 -8 0 -58 2 -110 4 -118 -1 -118 -80 5 -117 183 -174
73 -121 -235 1 -3 16 -5 34 -5 28 0 31 17 21 110 -14 136 -12 136 79 -1 68
-102 141 -142 135 -74 -1 14 -3 93 -5 175 -2 119 -9 150 -33 150 -16 0 -31 -7
-32 -15z"/>
<path d="M4088 851 c-15 -37 9 -75 36 -59 13 8 15 -2 7 -29 -15 -48 18 -60 36
-13 15 38 -19 130 -47 130 -12 0 -26 -13 -32 -29z"/>
</g>
</svg>
