<?xml version="1.0" standalone="no"?>
<!DOCTYPE svg PUBLIC "-//W3C//DTD SVG 20010904//EN"
 "http://www.w3.org/TR/2001/REC-SVG-20010904/DTD/svg10.dtd">
<svg version="1.0" xmlns="http://www.w3.org/2000/svg"
 width="3788.000000pt" height="3788.000000pt" viewBox="0 0 3788.000000 3788.000000"
 preserveAspectRatio="xMidYMid meet">
<metadata>
Created by potrace 1.16, written by Peter Selinger 2001-2019
</metadata>
<g transform="translate(0.000000,3788.000000) scale(0.100000,-0.100000)"
fill="#000000" stroke="none">
<path d="M18285 35929 c-2419 -92 -4781 -696 -6935 -1774 -1239 -620 -2405
-1395 -3460 -2300 -597 -511 -1226 -1135 -1751 -1735 -1627 -1860 -2841 -4084
-3524 -6455 -444 -1541 -665 -3113 -665 -4725 0 -2198 418 -4356 1235 -6375
753 -1864 1812 -3546 3193 -5075 331 -367 968 -991 1372 -1346 2286 -2006
5081 -3364 8063 -3919 1677 -312 3429 -369 5127 -169 2261 266 4430 981 6405
2109 1145 655 2193 1427 3175 2340 230 214 753 743 960 970 2510 2760 4032
6203 4370 9890 108 1186 93 2410 -46 3585 -129 1091 -359 2150 -698 3211 -328
1027 -797 2104 -1329 3054 -652 1165 -1387 2185 -2306 3200 -210 232 -872 891
-1111 1107 -815 736 -1660 1371 -2555 1920 -2370 1455 -5058 2301 -7835 2468
-493 29 -1205 38 -1685 19z m1544 -1049 c379 -23 630 -80 798 -179 193 -114
320 -276 397 -506 35 -104 44 -165 24 -165 -19 0 -692 -68 -741 -75 -30 -4
-39 -2 -43 12 -71 211 -213 315 -449 329 -170 11 -301 -34 -416 -144 -150
-141 -222 -380 -222 -732 1 -188 18 -283 73 -396 69 -142 204 -245 368 -279
109 -24 282 -19 393 9 104 27 268 92 275 110 9 25 20 231 12 237 -4 3 -124 13
-266 23 -141 10 -260 22 -265 26 -6 5 30 540 36 546 4 3 1261 -96 1264 -100 4
-4 -75 -1067 -82 -1102 -8 -39 -335 -201 -542 -267 -209 -68 -412 -93 -663
-84 -397 16 -679 89 -900 231 -98 64 -242 205 -305 301 -148 224 -212 438
-222 745 -17 535 166 968 518 1230 89 66 231 139 340 174 81 26 243 54 344 59
33 2 74 4 90 5 17 1 99 -3 184 -8z m-2386 -117 c26 -168 318 -2585 313 -2590
-5 -5 -762 -102 -802 -103 -7 0 -28 142 -57 378 -215 1737 -277 2245 -275
2248 2 2 720 94 804 103 6 0 14 -16 17 -36z m5137 -308 c206 -59 378 -110 382
-114 4 -3 -37 -159 -91 -346 -153 -528 -155 -534 -150 -539 7 -7 850 -248 854
-244 2 1 60 198 129 437 69 239 128 437 131 439 4 4 471 -126 738 -205 29 -8
47 -20 47 -29 0 -8 -99 -357 -221 -777 -121 -419 -283 -978 -360 -1242 -76
-264 -142 -487 -146 -496 -7 -14 -58 -2 -397 96 -215 62 -391 116 -393 121 -2
5 55 212 127 459 72 248 137 474 146 504 8 29 12 56 9 59 -3 4 -196 61 -428
128 -361 103 -423 118 -428 105 -4 -9 -71 -239 -149 -511 -79 -272 -144 -497
-146 -499 -3 -4 -776 218 -783 224 -6 6 11 67 189 681 83 285 230 791 326
1124 96 333 184 636 195 673 13 43 25 67 32 64 7 -2 181 -53 387 -112z m-6822
-302 c62 -219 166 -587 231 -818 66 -231 176 -620 245 -865 69 -245 126 -450
126 -456 0 -14 -778 -230 -789 -218 -5 5 -48 149 -96 319 -147 525 -194 688
-200 693 -2 3 -159 -38 -347 -91 -189 -53 -380 -106 -425 -119 -46 -13 -83
-27 -83 -33 0 -5 64 -236 142 -512 78 -277 139 -506 135 -509 -7 -8 -779 -226
-782 -222 -2 2 -136 476 -300 1053 -163 578 -325 1149 -360 1270 -55 194 -61
221 -46 227 25 11 773 219 776 216 1 -2 57 -199 125 -438 67 -239 125 -438
128 -441 5 -5 850 226 859 235 1 1 -54 199 -122 441 -69 241 -122 441 -119
444 7 8 745 219 770 220 18 1 30 -36 132 -396z m11524 -1738 c247 -21 636
-233 921 -504 322 -306 397 -627 230 -992 -20 -44 -37 -79 -39 -79 -7 0 -629
383 -643 395 -11 11 -10 22 10 71 17 44 23 81 23 144 1 108 -22 160 -110 246
-152 151 -341 175 -422 54 -20 -29 -23 -45 -20 -92 5 -70 37 -120 164 -262
261 -291 376 -436 470 -592 213 -355 170 -716 -119 -990 -288 -274 -687 -309
-1107 -99 -338 170 -680 470 -813 715 -96 176 -111 426 -40 655 30 94 99 245
113 245 11 0 627 -375 647 -394 10 -9 6 -28 -18 -89 -59 -152 -59 -257 -2
-374 70 -141 251 -262 394 -263 159 0 258 90 259 235 0 105 -59 203 -259 430
-331 375 -461 620 -461 869 0 112 18 186 72 296 77 158 242 295 427 355 54 18
184 34 231 29 14 -2 55 -6 92 -9z m-16626 -76 c95 -13 218 -51 299 -92 66 -33
200 -120 210 -137 4 -6 -118 -138 -270 -294 l-276 -284 -67 35 c-138 70 -259
68 -412 -9 -105 -53 -223 -164 -264 -249 -57 -118 -71 -249 -40 -379 49 -210
274 -534 479 -691 239 -182 528 -149 777 89 87 84 145 164 209 293 l42 86 -69
96 c-38 53 -73 96 -77 97 -5 0 -106 -70 -225 -155 -205 -148 -217 -155 -232
-138 -47 50 -310 427 -303 434 19 18 1015 729 1021 729 4 0 25 -26 48 -58 23
-31 168 -232 324 -447 155 -214 284 -394 286 -400 6 -16 -66 -196 -141 -350
-159 -329 -375 -567 -734 -809 -386 -261 -741 -339 -1089 -240 -115 32 -310
129 -410 203 -254 188 -475 479 -587 771 -138 360 -111 738 75 1051 116 195
340 403 651 605 315 204 542 276 775 243z m9479 -1330 c330 -33 636 -66 680
-74 44 -7 321 -63 616 -124 l537 -110 568 -177 569 -177 553 -234 c368 -155
601 -260 695 -312 78 -43 306 -167 507 -276 307 -167 412 -230 663 -399 681
-460 675 -455 1143 -843 444 -368 453 -376 851 -775 398 -399 406 -408 773
-853 l371 -450 333 -495 333 -495 276 -510 275 -510 230 -545 230 -545 176
-568 176 -567 91 -443 c158 -771 152 -737 219 -1403 l61 -610 0 -580 -1 -579
-64 -635 c-52 -501 -73 -671 -100 -805 -19 -93 -73 -359 -121 -589 -92 -451
-68 -367 -374 -1346 -38 -124 -90 -272 -114 -330 -227 -535 -351 -829 -384
-905 -33 -75 -385 -734 -553 -1035 -62 -111 -665 -1004 -739 -1095 -632 -775
-655 -801 -1085 -1233 -405 -407 -417 -419 -830 -760 -230 -191 -441 -365
-470 -388 -28 -22 -265 -185 -526 -361 -378 -255 -522 -346 -705 -445 -856
-466 -760 -418 -1345 -666 l-545 -230 -565 -176 c-521 -162 -588 -181 -860
-237 -162 -33 -425 -87 -585 -120 -159 -33 -351 -66 -425 -74 -74 -8 -358 -38
-630 -66 l-495 -51 -605 0 -605 0 -550 56 c-302 31 -588 61 -635 66 -47 6
-347 64 -667 130 l-582 119 -568 177 -568 177 -550 233 c-361 153 -602 261
-700 315 -82 45 -312 169 -510 277 -339 184 -389 215 -846 524 -484 328 -488
331 -935 699 -442 365 -455 376 -847 767 l-398 397 -388 470 c-360 437 -402
493 -606 795 -120 179 -264 393 -320 475 -69 101 -195 320 -385 670 -304 560
-267 480 -664 1425 -64 152 -122 321 -259 765 l-177 570 -120 587 -119 587
-63 598 -62 598 0 655 0 655 63 600 c47 455 70 640 96 765 19 91 73 354 120
585 91 446 74 385 338 1235 98 314 119 370 335 880 l230 545 282 520 c193 355
315 567 385 670 56 83 200 296 320 475 201 299 249 362 593 780 370 450 379
459 771 853 396 398 396 398 861 782 281 232 523 423 610 483 80 54 294 199
475 322 311 211 361 240 855 510 l525 285 550 233 550 232 564 176 c441 137
608 184 760 215 108 22 372 76 586 120 l390 80 580 61 c664 69 848 78 1495 71
382 -4 390 -5 985 -64z m9597 -614 c266 -46 516 -192 763 -446 151 -155 239
-273 310 -414 155 -309 152 -601 -8 -947 -22 -49 -44 -88 -49 -88 -20 0 -609
402 -605 413 58 137 60 145 65 234 3 74 0 105 -17 160 -60 199 -267 353 -475
353 -185 0 -364 -99 -597 -330 -125 -125 -211 -238 -259 -340 -29 -64 -35 -88
-38 -165 -6 -148 40 -248 170 -371 102 -96 175 -128 299 -132 86 -3 105 -1
190 28 52 17 122 47 157 67 35 19 65 33 66 31 20 -25 335 -661 331 -667 -9
-15 -189 -99 -266 -125 -135 -45 -225 -59 -369 -59 -159 1 -275 26 -413 91
-210 98 -443 306 -637 567 -180 242 -250 433 -250 683 0 384 147 694 481 1017
254 245 484 378 754 435 111 23 281 25 397 5z m-21032 -780 c492 -417 941
-798 997 -846 l103 -88 -252 -293 c-236 -275 -253 -293 -282 -290 -17 1 -404
43 -861 92 -456 50 -835 89 -841 88 -6 -2 236 -212 538 -468 301 -255 548
-466 548 -468 0 -9 -493 -577 -501 -577 -8 0 -298 245 -1681 1418 -180 153
-330 282 -333 287 -5 8 460 562 487 580 4 3 225 -18 490 -47 266 -29 651 -71
857 -93 205 -23 380 -40 389 -38 8 2 -224 205 -532 466 -300 255 -548 467
-550 470 -2 4 109 139 247 299 219 256 253 291 266 279 9 -7 419 -354 911
-771z m23479 -1771 c110 -190 201 -350 201 -354 0 -4 -178 -110 -395 -235
-217 -125 -395 -231 -395 -235 0 -16 441 -765 449 -763 4 1 183 103 399 227
215 124 393 226 396 226 3 0 16 -19 30 -42 13 -24 104 -180 201 -348 98 -168
179 -308 181 -312 2 -3 -132 -85 -298 -181 -167 -96 -571 -329 -898 -517 -327
-189 -707 -408 -844 -487 -137 -79 -252 -142 -257 -141 -5 2 -83 131 -175 288
-229 394 -238 410 -227 421 5 5 209 124 453 265 245 140 449 259 453 264 12
11 -428 765 -446 764 -8 -1 -210 -114 -448 -251 -239 -138 -444 -255 -456
-261 -20 -11 -31 5 -214 321 -106 182 -199 341 -206 353 -13 20 -3 27 244 169
142 81 310 178 373 215 63 37 372 215 685 395 314 181 662 382 775 447 113 65
208 118 211 118 4 0 97 -156 208 -346z m-25194 -1047 c566 -363 850 -551 849
-561 -2 -20 -426 -676 -437 -676 -15 0 -2227 1422 -2227 1431 0 7 121 196 397
621 l43 67 263 -169 c144 -92 645 -414 1112 -713z m-1634 -1018 c402 -41 892
-251 1118 -479 243 -245 345 -542 297 -867 -34 -231 -38 -241 -456 -1320 l-82
-212 -37 14 c-20 8 -575 222 -1235 475 -659 252 -1201 462 -1204 465 -8 8 455
1199 511 1310 131 265 281 423 501 526 178 83 364 111 587 88z m27839 -1015
c163 -32 337 -109 467 -206 280 -210 488 -593 569 -1048 24 -131 24 -366 1
-484 -82 -411 -373 -724 -837 -901 -230 -88 -463 -136 -666 -136 -134 -1 -160
2 -277 27 -166 36 -344 126 -488 249 -211 179 -375 482 -469 866 -40 165 -53
288 -47 442 11 285 114 521 324 738 108 112 226 195 388 275 351 171 733 237
1035 178z m-27090 -2126 c1 -20 -142 -822 -147 -828 -2 -2 -103 -16 -224 -31
-121 -14 -222 -29 -225 -31 -3 -4 -164 -889 -164 -905 0 -2 87 -46 193 -99
105 -53 197 -100 203 -105 8 -7 8 -29 -2 -82 -66 -378 -125 -706 -129 -724 -5
-22 -5 -22 -58 9 -28 17 -293 172 -587 346 -294 173 -623 367 -730 430 -107
63 -390 230 -628 370 -239 140 -436 261 -439 269 -4 11 143 874 150 878 3 3
2761 513 2775 514 6 1 12 -5 12 -11z m27655 -1219 c556 -68 945 -426 1063
-980 47 -221 59 -521 28 -709 -79 -484 -359 -815 -811 -960 -312 -100 -722
-116 -1023 -40 -136 35 -302 113 -403 189 -157 119 -303 308 -374 482 -86 211
-119 410 -119 709 0 303 32 460 135 660 186 364 560 593 1059 649 111 12 342
12 445 0z m-28125 -1806 c0 -10 16 -511 35 -1113 19 -602 32 -1096 29 -1099
-4 -4 -1730 -60 -2375 -77 l-277 -7 -6 114 c-3 63 -20 553 -36 1088 -21 686
-27 977 -19 982 12 7 548 23 555 16 4 -4 44 -1159 44 -1291 l0 -69 205 5 c113
3 209 8 212 12 4 3 -1 259 -10 569 -10 309 -17 592 -17 628 l0 66 266 7 c146
4 268 6 269 4 2 -2 11 -235 19 -518 9 -283 19 -566 22 -629 l6 -114 256 7
c141 3 257 8 259 10 2 1 -7 316 -19 699 -12 383 -20 699 -17 701 2 3 124 9
269 14 146 5 280 10 298 10 24 2 32 -2 32 -15z m27913 -1628 c710 -85 1293
-158 1296 -161 6 -6 -87 -796 -95 -803 -3 -3 -448 48 -990 113 -550 66 -989
115 -994 110 -4 -5 -41 -285 -81 -622 -41 -338 -77 -619 -81 -625 -5 -8 -92
-1 -325 27 -175 21 -319 39 -320 40 -1 1 54 463 122 1026 69 564 125 1031 125
1038 0 6 12 12 26 12 14 0 607 -70 1317 -155z m-27699 -1355 c47 -212 149
-668 226 -1014 77 -346 138 -631 136 -633 -5 -5 -2492 -559 -2557 -569 l-36
-6 -16 68 c-109 490 -160 725 -156 728 3 3 1014 227 1699 377 129 28 239 55
243 59 5 4 -26 160 -68 346 -174 777 -199 894 -194 898 9 10 624 143 631 137
3 -3 45 -179 92 -391z m27515 -1354 c37 -372 71 -679 74 -682 3 -3 313 -77
689 -165 376 -87 694 -161 707 -164 13 -3 21 -8 19 -10 -2 -3 -294 -115 -649
-249 -354 -134 -652 -247 -661 -251 -13 -5 -18 -18 -18 -44 1 -20 32 -326 69
-681 38 -355 68 -646 66 -648 -2 -2 -752 814 -862 938 l-31 34 -94 -27 c-110
-32 -161 -34 -203 -9 l-30 18 -485 -186 c-267 -102 -511 -196 -543 -208 -35
-13 -55 -17 -51 -9 4 6 171 268 371 581 l364 569 -34 36 c-190 199 -927 1006
-920 1008 5 2 323 -71 706 -162 384 -91 701 -163 705 -161 4 2 171 263 372
579 201 316 366 574 368 572 1 -1 33 -307 71 -679z m-27538 -1578 c172 -271
336 -530 365 -575 l53 -82 58 14 c32 8 326 77 653 155 327 78 621 147 653 155
41 9 55 10 50 2 -4 -7 -220 -242 -480 -524 -260 -282 -473 -515 -473 -518 0
-6 69 -115 469 -739 144 -224 260 -410 258 -413 -3 -2 -245 88 -540 201 l-535
205 -38 -20 c-49 -25 -72 -24 -174 5 -47 14 -92 26 -101 28 -9 2 -177 -174
-458 -480 -244 -266 -445 -482 -447 -479 -2 2 28 306 67 677 39 370 67 676 62
680 -6 6 -825 319 -1225 468 -54 20 -94 39 -90 43 4 4 322 80 707 169 385 90
701 163 702 164 1 1 32 306 70 679 37 372 71 677 75 677 3 0 147 -222 319
-492z m25075 -1759 c228 -31 501 -160 749 -354 236 -183 391 -442 411 -682 11
-141 -37 -338 -122 -491 -74 -136 -527 -833 -538 -829 -6 3 -95 58 -196 122
-102 65 -511 325 -910 578 -399 252 -729 462 -733 466 -11 11 474 764 568 884
114 143 221 222 369 272 129 43 258 54 402 34z m-1271 -2080 c96 -387 177
-713 180 -725 2 -12 152 -162 332 -335 181 -172 330 -317 331 -322 4 -7 -282
-308 -300 -315 -4 -2 -154 137 -334 310 -179 172 -333 316 -342 320 -10 4
-141 32 -292 62 -502 101 -1174 237 -1176 239 -2 1 79 86 179 189 l182 187
490 -113 c270 -63 491 -113 491 -112 1 0 -60 217 -136 481 l-138 479 176 183
c96 101 177 182 178 180 2 -2 82 -320 179 -708z m-21050 492 c114 -30 266
-109 360 -184 219 -177 398 -428 456 -642 52 -191 15 -417 -97 -593 l-39 -61
-169 129 c-93 71 -173 133 -178 138 -5 5 6 39 24 78 31 66 33 75 33 185 l0
115 -44 90 c-78 157 -235 289 -400 338 -69 20 -208 21 -286 1 -242 -61 -553
-338 -656 -585 -143 -341 71 -714 486 -848 117 -38 103 -42 214 55 55 49 100
93 100 98 0 6 -74 92 -164 193 l-166 183 48 43 c27 23 89 79 140 124 l91 82
204 -227 c111 -125 254 -283 315 -352 62 -69 112 -130 110 -134 -1 -5 -146
-137 -322 -294 l-320 -284 -63 5 c-134 11 -389 119 -567 239 -117 79 -303 266
-378 378 -150 226 -215 469 -187 694 59 474 514 947 1010 1051 100 20 344 13
445 -15z m19830 -2296 c335 -423 635 -802 667 -842 32 -39 58 -76 58 -81 0 -9
-319 -263 -339 -270 -5 -2 -141 164 -302 368 -162 203 -299 368 -305 366 -6
-2 -160 -121 -342 -264 l-331 -260 295 -372 c162 -204 294 -376 292 -380 -3
-9 -333 -270 -342 -270 -8 0 -1351 1700 -1353 1713 -2 7 74 72 168 146 141
110 173 131 184 120 7 -8 126 -158 265 -334 139 -176 258 -320 265 -319 6 1
160 117 341 259 181 142 330 259 332 260 1 1 -117 152 -262 336 -146 184 -264
339 -262 344 1 6 78 70 171 143 134 105 171 130 181 120 6 -7 285 -359 619
-783z m-17965 530 c294 -95 596 -349 722 -605 109 -222 127 -472 51 -715 -104
-332 -430 -711 -729 -846 -153 -69 -345 -99 -504 -79 -355 45 -728 314 -890
643 -188 381 -109 786 234 1194 202 241 411 375 666 429 43 9 115 12 215 10
131 -3 161 -7 235 -31z m1898 -1303 c61 -37 112 -70 112 -74 0 -4 -33 -62 -74
-130 -378 -631 -830 -1395 -832 -1407 -3 -12 124 -91 457 -286 253 -148 465
-273 471 -276 11 -7 -168 -319 -184 -319 -7 0 -1306 760 -1327 776 -2 2 218
376 490 831 271 455 521 876 556 935 l64 107 77 -46 c42 -25 128 -75 190 -111z
m12133 -1674 c963 -1024 866 -915 837 -928 -50 -22 -412 -160 -419 -160 -4 0
-87 88 -184 196 -129 142 -182 194 -194 189 -9 -3 -193 -74 -409 -158 l-394
-152 3 -264 3 -264 -25 -12 c-60 -30 -400 -156 -408 -151 -6 4 -9 446 -8 1173
l2 1167 210 83 c116 45 215 82 221 82 6 1 351 -360 765 -801z m-10040 742
c397 -81 683 -322 758 -640 18 -76 32 -273 21 -283 -3 -2 -93 4 -200 14 -107
10 -207 18 -221 19 -26 0 -27 0 -31 93 -3 77 -9 102 -35 157 -58 123 -145 197
-290 246 -61 21 -98 27 -168 27 -150 1 -259 -47 -366 -161 -78 -83 -135 -182
-190 -327 -105 -278 -130 -505 -75 -663 94 -264 414 -400 664 -281 73 35 179
134 232 216 l33 53 31 -23 c17 -13 100 -72 184 -131 96 -68 150 -112 145 -119
-23 -40 -107 -141 -161 -195 -105 -104 -216 -171 -352 -214 -65 -20 -95 -23
-230 -23 -131 0 -169 4 -245 24 -328 86 -559 266 -685 533 -71 152 -85 219
-85 418 0 196 12 269 72 449 152 459 423 733 804 816 98 21 273 19 390 -5z
m7343 -594 c156 -30 271 -93 396 -216 169 -166 267 -369 337 -695 24 -117 27
-150 27 -325 0 -180 -2 -203 -27 -294 -64 -239 -188 -403 -392 -517 -131 -73
-220 -96 -891 -224 -160 -30 -297 -55 -306 -55 -16 0 0 -82 -268 1309 -88 458
-159 835 -158 836 6 6 858 167 948 180 129 18 243 18 334 1z m-4978 -17 c535
-74 881 -410 935 -906 24 -230 -31 -552 -136 -780 -131 -285 -371 -485 -673
-560 -103 -26 -357 -23 -487 5 -253 54 -421 137 -568 281 -299 290 -370 721
-205 1241 59 184 139 321 263 446 146 148 321 243 503 274 71 12 281 11 368
-1z m3144 -236 c0 -27 18 -518 40 -1093 21 -574 38 -1045 37 -1047 -1 -1 -102
-5 -223 -9 l-221 -7 -71 104 c-39 57 -250 371 -468 696 -219 326 -399 591
-401 589 -2 -2 8 -321 23 -710 14 -389 25 -709 23 -710 -2 -2 -95 -7 -205 -11
l-202 -7 -6 103 c-11 181 -78 2080 -74 2084 2 2 100 7 218 10 l215 6 474 -710
c261 -391 476 -710 477 -708 1 1 -8 281 -21 622 -13 341 -25 667 -27 725 l-3
105 105 6 c58 3 151 6 208 7 l102 2 0 -47z m6249 -158 c51 -99 103 -216 117
-259 54 -171 23 -324 -96 -474 l-41 -53 -61 48 c-34 27 -69 53 -77 59 -12 9
-8 20 26 65 22 30 46 70 54 89 16 42 17 120 1 175 -22 75 -22 75 -117 27 -47
-23 -89 -40 -93 -38 -11 7 -187 365 -182 369 18 16 366 184 372 179 3 -4 47
-88 97 -187z"/>
<path d="M18729 29719 c-4 -11 -45 -1615 -41 -1621 2 -5 70 -8 153 -8 l149 0
0 108 c0 60 3 225 7 367 l6 258 204 -5 c112 -3 206 -8 209 -11 4 -3 2 -167 -4
-364 -5 -197 -7 -360 -5 -363 3 -3 69 -6 148 -8 l143 -3 6 53 c8 78 41 1556
35 1563 -3 2 -71 8 -151 11 l-145 7 -7 -319 c-4 -175 -8 -320 -9 -321 -1 0
-96 1 -210 4 l-208 6 6 241 c3 133 8 276 10 319 l5 77 -74 0 c-40 0 -107 3
-149 6 -43 4 -78 5 -78 3z"/>
<path d="M18317 29703 c-26 -2 -241 -19 -477 -37 -237 -18 -433 -35 -436 -39
-4 -3 -2 -61 2 -129 l9 -123 60 0 c33 0 112 4 175 8 l115 9 52 -672 c28 -369
53 -673 56 -676 4 -5 289 15 295 21 1 1 -20 296 -48 655 -27 359 -50 662 -50
674 0 22 5 23 167 35 92 7 170 14 172 16 2 3 0 62 -5 132 -10 141 -4 132 -87
126z"/>
<path d="M20270 29628 c0 -2 -65 -361 -144 -798 -79 -437 -143 -796 -141 -798
4 -4 829 -152 832 -149 1 2 13 61 26 132 l23 130 -21 6 c-12 4 -133 26 -269
50 -177 32 -246 48 -246 57 0 15 69 401 75 418 3 9 200 -21 456 -71 l36 -7 17
94 c9 51 19 107 22 125 7 38 31 31 -259 82 -120 21 -220 40 -222 42 -4 5 60
357 66 364 3 2 121 -16 262 -42 142 -25 259 -44 261 -42 8 8 48 251 42 256 -4
4 -178 37 -389 75 -210 37 -392 70 -404 73 -13 3 -23 4 -23 3z"/>
<path d="M16077 29330 c-186 -53 -364 -104 -396 -113 l-59 -16 223 -776 c123
-427 225 -778 227 -781 4 -4 277 72 285 80 2 2 -39 155 -93 340 -53 186 -94
340 -91 343 3 3 112 36 242 73 130 37 238 70 241 73 3 3 -10 59 -28 124 -30
103 -37 118 -54 115 -10 -2 -122 -33 -248 -68 -125 -36 -230 -64 -231 -62 -7
7 -106 361 -102 365 2 2 116 36 253 74 137 39 253 75 258 79 14 14 -56 250
-74 249 -8 -1 -167 -45 -353 -99z"/>
<path d="M22316 29138 c-8 -13 -204 -331 -435 -708 l-421 -685 142 -47 c78
-27 145 -48 148 -48 4 0 37 55 75 123 38 67 84 147 102 178 l33 57 162 -56
c90 -30 164 -56 166 -58 2 -1 -8 -85 -22 -186 -14 -101 -26 -193 -26 -205 0
-17 22 -28 150 -73 83 -29 152 -51 153 -49 2 2 40 362 86 799 45 437 85 809
87 825 l5 30 -188 63 c-104 34 -192 62 -196 62 -3 0 -13 -10 -21 -22z m60
-668 c-25 -178 -47 -325 -49 -326 -4 -5 -207 63 -226 75 -12 8 5 44 84 183 54
95 127 226 164 290 36 65 67 114 69 109 2 -5 -18 -154 -42 -331z"/>
<path d="M14854 28965 c-75 -16 -197 -64 -256 -101 -90 -56 -144 -124 -178
-225 -30 -87 -24 -243 14 -372 67 -225 198 -545 284 -691 118 -200 277 -300
446 -281 77 8 224 57 295 98 193 110 259 290 202 547 -36 160 -146 451 -246
651 -117 236 -213 333 -372 374 -68 18 -107 18 -189 0z m117 -265 c21 -11 53
-40 70 -63 95 -129 305 -648 340 -840 20 -109 -8 -174 -92 -218 -95 -48 -188
-28 -250 54 -93 126 -304 647 -340 840 -16 84 -6 129 37 177 60 66 161 87 235
50z"/>
<path d="M23062 28023 c-287 -554 -369 -720 -359 -729 7 -6 176 -95 377 -197
l365 -186 60 116 c33 63 61 118 63 122 1 4 -106 63 -238 130 -132 67 -240 126
-240 131 0 5 138 275 306 600 168 325 304 593 302 595 -6 6 -254 135 -260 135
-3 0 -172 -323 -376 -717z"/>
<path d="M12975 27948 c-187 -120 -339 -225 -339 -232 1 -7 42 -76 91 -152
195 -303 776 -1199 779 -1203 2 -2 97 57 211 130 114 73 271 173 348 222 77
49 144 93 149 97 12 12 -134 232 -150 226 -7 -3 -106 -65 -221 -138 -114 -74
-213 -137 -219 -141 -8 -4 -54 58 -126 171 -63 97 -118 182 -121 188 -4 7 61
55 171 125 97 62 191 122 209 134 l31 21 -69 108 -70 107 -27 -17 c-167 -109
-381 -244 -389 -244 -10 0 -203 293 -203 307 1 4 100 71 220 148 121 77 220
142 220 145 0 12 -140 220 -147 219 -4 0 -161 -100 -348 -221z"/>
<path d="M24426 28073 c-664 -1025 -807 -1247 -809 -1255 -1 -5 158 -112 353
-237 l355 -229 73 111 c39 61 72 114 72 118 0 4 -101 72 -225 151 -123 79
-225 146 -225 150 0 4 161 256 358 560 197 304 361 558 364 563 5 9 -228 165
-246 165 -4 0 -35 -44 -70 -97z"/>
<path d="M12028 27258 c-90 -78 -163 -147 -163 -152 0 -6 114 -215 253 -464
140 -250 252 -455 250 -457 -2 -2 -192 138 -422 311 -231 173 -423 314 -427
314 -9 0 -333 -279 -337 -291 -3 -7 375 -443 919 -1060 l146 -166 104 90 c57
50 105 93 107 97 1 4 -206 243 -461 531 -255 288 -463 525 -462 527 2 2 262
-191 579 -429 l576 -431 67 58 c38 32 69 59 71 60 2 1 -157 286 -353 634 -195
348 -354 634 -353 635 2 1 203 -229 448 -512 245 -283 455 -523 467 -535 l22
-21 101 88 c55 48 102 91 105 95 5 9 -1052 1220 -1065 1220 -5 0 -82 -64 -172
-142z"/>
<path d="M25090 26784 c-366 -268 -665 -490 -665 -494 0 -8 43 -47 168 -153
l56 -49 161 126 c88 69 162 126 166 126 5 0 264 -220 264 -225 0 -1 -45 -80
-101 -176 -55 -95 -101 -175 -102 -179 -1 -3 53 -54 119 -113 l122 -106 357
662 c197 364 375 694 397 733 l39 72 -150 131 c-83 72 -154 131 -158 131 -4
-1 -307 -219 -673 -486z m460 -151 c-90 -153 -168 -283 -174 -290 -8 -9 -33 7
-103 68 -51 45 -93 84 -93 88 1 7 524 419 529 415 1 -2 -70 -128 -159 -281z"/>
<path d="M16952 26901 c-57 -42 -65 -67 -58 -181 11 -191 91 -553 254 -1160
87 -322 162 -815 147 -969 -3 -36 -13 -127 -22 -201 -27 -238 -6 -320 115
-453 40 -44 82 -97 93 -119 23 -44 99 -237 99 -250 0 -5 7 -25 16 -46 9 -20
18 -44 19 -52 1 -8 23 -87 48 -175 25 -88 82 -302 126 -475 118 -460 129 -503
141 -523 6 -11 9 -21 7 -23 -3 -3 -1 -22 4 -42 77 -323 109 -520 109 -685 0
-110 -12 -201 -30 -220 -10 -12 -39 4 -104 58 -30 24 -57 41 -62 37 -4 -4 -4
-2 -1 4 3 6 -8 26 -25 45 -17 19 -31 36 -31 39 0 3 -15 37 -33 75 -19 39 -50
131 -69 205 -45 170 -80 272 -113 330 -35 62 -117 141 -174 168 -58 27 -58 27
-58 4 0 -10 -7 -27 -15 -38 -9 -12 -14 -43 -15 -86 0 -65 15 -132 115 -511 44
-169 65 -283 65 -359 0 -54 -2 -58 -23 -58 -54 0 -235 112 -270 168 -5 7 -14
9 -20 6 -7 -4 -9 -4 -5 1 4 4 -26 44 -65 89 -40 44 -93 108 -117 141 -24 33
-47 62 -52 63 -4 2 -8 9 -8 15 0 5 -22 41 -50 79 -27 38 -50 71 -50 74 0 3
-13 23 -28 43 -16 20 -32 44 -35 54 -4 10 -11 16 -16 13 -5 -3 -8 0 -7 7 2 20
-197 336 -208 330 -5 -4 -6 -1 -3 4 12 20 -299 487 -317 476 -5 -3 -6 -1 -2 5
14 23 -197 255 -283 313 -25 16 -51 27 -59 24 -7 -2 -10 -1 -7 4 3 5 -4 12
-15 15 -65 19 -60 22 -60 -41 0 -32 7 -86 15 -118 22 -81 125 -296 139 -288 6
3 8 3 4 -2 -8 -9 16 -61 43 -90 10 -11 18 -24 18 -30 0 -15 265 -414 272 -410
3 2 6 -1 6 -8 0 -7 27 -50 60 -97 33 -47 86 -123 118 -170 32 -47 62 -88 67
-91 5 -3 10 -10 11 -15 2 -16 32 -64 40 -64 4 0 7 -4 7 -9 0 -17 87 -140 95
-133 5 4 5 2 2 -4 -3 -6 14 -43 38 -81 24 -39 67 -113 96 -165 29 -51 57 -96
63 -100 6 -4 8 -8 4 -8 -4 0 15 -46 42 -103 27 -57 55 -122 62 -145 9 -31 18
-42 33 -42 57 0 550 104 680 143 83 25 225 66 317 93 l166 47 22 96 c12 53 24
103 27 111 3 8 5 19 4 25 -3 14 41 105 51 105 8 0 -6 -35 -33 -83 -19 -35 2
-31 36 6 81 88 88 103 81 160 -16 126 -97 540 -142 727 -63 263 -86 356 -92
365 -3 5 -7 18 -8 30 -1 11 -41 171 -87 355 -88 344 -132 542 -163 735 -25
152 -26 451 -1 549 39 153 123 280 235 353 36 24 69 43 74 43 5 0 7 4 4 8 -2
4 3 8 12 9 9 0 70 21 134 46 215 83 441 124 629 114 58 -4 202 -21 320 -39
198 -30 233 -32 474 -32 336 -1 453 14 976 128 170 37 312 48 455 36 65 -6
186 -14 268 -17 126 -5 148 -4 144 8 -6 15 -98 314 -182 594 -30 99 -69 219
-85 267 -122 354 -281 552 -511 637 -189 70 -473 79 -795 25 -49 -8 -97 -17
-105 -20 -8 -4 -28 -7 -45 -9 -16 -1 -81 -8 -144 -15 -152 -17 -463 -8 -636
19 -71 11 -220 36 -330 55 -289 49 -389 60 -580 60 -233 0 -439 -30 -667 -96
-59 -17 -114 -28 -121 -25 -8 3 -39 41 -70 85 -31 44 -83 108 -115 143 -33 35
-73 78 -88 96 -25 27 -38 33 -89 39 -56 5 -63 4 -103 -25z m493 -673 c108 -26
222 -78 286 -130 25 -21 50 -34 54 -30 5 4 5 2 2 -4 -4 -7 2 -23 13 -37 12
-14 30 -48 42 -74 42 -92 21 -315 -58 -621 -56 -218 -164 -531 -164 -476 0 9
-33 171 -125 619 -23 113 -143 653 -154 695 -5 19 -13 45 -17 58 -6 22 -5 22
37 16 24 -3 62 -10 84 -16z"/>
<path d="M26470 26477 c-47 -46 -311 -296 -587 -556 l-503 -474 102 -109 101
-109 26 23 c34 30 368 345 448 422 l63 60 56 -54 c30 -30 96 -98 145 -151 l89
-97 -265 -248 c-145 -137 -265 -253 -265 -258 0 -5 46 -55 103 -112 l102 -102
560 529 c308 291 573 543 589 558 l29 29 -99 106 c-54 58 -102 106 -105 106
-3 0 -108 -97 -234 -215 -126 -119 -232 -214 -235 -213 -13 6 -280 293 -278
298 2 4 95 93 208 199 113 107 215 203 228 215 l22 22 -101 107 c-55 59 -104
107 -107 107 -4 0 -45 -38 -92 -83z"/>
<path d="M10513 25719 c-65 -83 -118 -157 -118 -164 0 -13 1025 -1267 1045
-1280 8 -5 182 211 184 230 0 7 -59 81 -132 165 l-132 152 32 41 c129 165 180
227 189 227 6 0 88 -39 182 -87 94 -49 174 -89 178 -91 4 -2 52 54 108 125
l100 127 -67 32 c-37 17 -376 176 -754 352 -377 177 -689 322 -692 322 -3 0
-58 -68 -123 -151z m542 -352 c160 -82 292 -151 294 -153 3 -3 -66 -96 -131
-177 l-23 -28 -210 237 c-213 241 -245 280 -229 273 5 -2 140 -71 299 -152z"/>
<path d="M9893 24895 c-40 -63 -73 -118 -72 -122 0 -5 213 -141 474 -303 261
-162 473 -295 471 -297 -1 -1 -265 54 -586 123 -471 100 -586 122 -596 112 -6
-7 -46 -66 -88 -131 l-75 -117 37 -24 c114 -72 608 -385 946 -599 213 -136
390 -247 392 -247 4 0 82 120 132 201 l22 37 -479 298 c-264 165 -478 300
-477 301 1 1 267 -54 591 -122 324 -69 592 -122 596 -118 4 5 41 62 83 127 61
96 74 122 64 132 -12 11 -1355 864 -1360 864 -2 0 -36 -52 -75 -115z"/>
<path d="M27350 24419 c-327 -281 -608 -522 -625 -536 l-29 -25 27 -52 c15
-28 55 -99 90 -157 l62 -106 390 143 c484 178 591 216 585 211 -3 -3 -180
-152 -395 -332 -214 -180 -391 -330 -393 -335 -6 -15 170 -311 182 -307 6 2
356 125 778 273 423 148 768 272 768 276 0 17 -144 258 -154 258 -7 0 -270
-104 -586 -230 -315 -127 -574 -229 -575 -228 -1 2 211 183 472 403 261 220
478 405 483 410 5 6 -18 55 -54 116 l-62 106 -49 -18 c-356 -130 -1108 -400
-1110 -397 -2 2 212 176 476 388 l479 384 -18 31 c-10 16 -44 76 -76 133 -32
56 -61 102 -65 102 -3 0 -274 -230 -601 -511z"/>
<path d="M8951 23148 c-5 -13 -73 -185 -150 -382 -78 -198 -138 -363 -134
-366 11 -11 1505 -592 1509 -587 6 6 304 766 304 776 0 14 -240 105 -250 95
-4 -5 -49 -115 -100 -244 -51 -129 -96 -239 -100 -243 -11 -13 -416 149 -412
165 2 7 42 111 89 231 47 120 84 219 82 221 -19 15 -232 87 -238 80 -4 -5 -45
-107 -92 -226 -46 -120 -88 -218 -94 -218 -12 0 -327 120 -337 129 -5 4 35
116 88 250 53 133 92 246 88 250 -11 10 -222 91 -235 91 -5 0 -13 -10 -18 -22z"/>
<path d="M28196 22735 c-417 -140 -761 -256 -763 -259 -2 -2 17 -67 44 -143
l47 -140 341 114 c187 62 345 113 351 113 7 0 41 -87 77 -194 l65 -194 -349
-117 c-192 -64 -349 -119 -349 -122 0 -17 94 -273 100 -273 9 0 1532 508 1536
513 7 7 -92 277 -101 277 -6 0 -138 -43 -295 -95 -157 -52 -289 -95 -295 -95
-12 0 -143 376 -134 384 3 4 136 50 295 103 159 53 292 99 297 103 10 8 -85
280 -98 279 -5 0 -351 -115 -769 -254z"/>
<path d="M8445 21774 c-15 -65 -28 -131 -29 -148 l-1 -29 305 -70 c168 -38
306 -70 307 -71 2 -1 -88 -399 -91 -403 -1 -1 -140 30 -309 69 -170 38 -311
68 -313 65 -7 -6 -72 -287 -67 -287 2 0 360 -81 794 -181 435 -99 792 -179
794 -177 11 14 63 283 56 287 -5 4 -166 42 -358 85 -191 43 -349 80 -351 81
-2 2 88 398 93 403 1 1 148 -31 326 -72 178 -41 340 -77 360 -81 l35 -6 33
141 c18 78 31 143 29 145 -4 4 -113 29 -1013 235 -291 67 -540 123 -551 126
-20 5 -24 -3 -49 -112z"/>
<path d="M28994 21519 c-247 -18 -704 -136 -877 -226 -128 -67 -221 -193 -235
-316 -13 -114 18 -288 70 -392 50 -99 137 -171 249 -206 132 -41 395 -16 738
70 373 94 516 173 602 334 30 55 34 72 37 159 9 208 -66 402 -189 493 -99 73
-212 97 -395 84z m259 -325 c73 -48 105 -180 61 -254 -40 -69 -169 -124 -457
-194 -342 -84 -567 -110 -635 -73 -17 10 -44 36 -60 59 -23 36 -27 51 -27 117
0 63 4 81 23 108 48 67 275 146 627 218 299 61 397 65 468 19z"/>
<path d="M8197 20578 c-11 -51 -121 -957 -117 -962 7 -6 251 -38 256 -33 3 2
14 79 26 171 13 95 26 166 32 166 6 1 309 -36 673 -82 364 -46 664 -81 666
-78 11 11 39 282 31 289 -5 4 -306 45 -669 90 -363 46 -663 86 -666 89 -4 4 3
80 14 170 11 89 18 164 15 167 -4 5 -216 35 -244 35 -6 0 -14 -10 -17 -22z"/>
<path d="M28830 19513 c-30 -1 -110 -7 -178 -13 -286 -25 -426 -99 -504 -267
-27 -57 -31 -78 -35 -176 -15 -348 154 -516 520 -517 l107 0 0 93 c0 50 -3
116 -6 145 l-7 52 -61 0 c-90 0 -192 17 -235 40 -48 24 -71 70 -71 142 0 100
53 147 190 167 191 28 672 40 829 21 144 -19 194 -62 195 -171 1 -68 -19 -102
-80 -136 -38 -22 -55 -26 -161 -39 l-53 -6 0 -98 c0 -53 3 -118 6 -144 l7 -48
71 7 c279 28 412 134 447 355 23 152 -9 323 -79 415 -107 142 -270 187 -667
183 -99 -1 -205 -3 -235 -5z"/>
<path d="M8863 18635 c-441 -33 -804 -63 -808 -66 -5 -6 12 -270 18 -276 2 -1
248 18 548 43 299 24 550 43 557 42 8 -2 -231 -115 -530 -252 -298 -137 -544
-249 -544 -250 -1 0 3 -68 10 -151 l11 -150 30 -3 c42 -3 1585 114 1592 122 7
6 -12 264 -20 272 -3 3 -256 -16 -562 -41 -307 -25 -559 -45 -560 -43 -2 2
242 116 542 253 300 138 547 253 549 257 6 10 -17 292 -25 299 -3 3 -367 -22
-808 -56z"/>
<path d="M14855 18403 c-33 -1 -82 -5 -110 -8 l-50 -6 3 -89 3 -90 61 0 61 0
-6 -55 -6 -55 117 1 c163 2 166 3 201 71 l30 57 -57 11 c-100 20 -92 12 -85
96 l6 74 -54 -2 c-30 -1 -81 -3 -114 -5z"/>
<path d="M22578 18336 c4 -85 9 -78 -80 -96 l-58 -11 30 -58 c34 -69 40 -71
201 -71 l109 0 0 55 0 55 58 0 59 0 -5 75 c-3 49 -1 80 7 89 14 17 -19 22
-204 32 l-120 6 3 -76z"/>
<path d="M28122 18193 c-27 -213 -27 -201 -1 -207 20 -4 667 -86 682 -86 2 0
-2 -45 -10 -101 -23 -169 -62 -244 -141 -270 -38 -13 -77 -11 -364 17 -150 14
-248 14 -248 0 0 -2 -9 -71 -20 -152 -11 -82 -20 -159 -20 -170 0 -22 0 -22
36 -4 59 30 132 34 334 15 115 -10 214 -14 250 -10 87 10 176 58 220 118 l35
47 7 -42 c21 -117 136 -194 330 -218 233 -29 368 47 435 243 29 88 110 687 93
697 -6 3 -362 50 -793 104 -430 53 -789 99 -798 102 -14 4 -18 -10 -27 -83z
m1145 -351 c117 -16 215 -30 217 -33 8 -8 -23 -210 -40 -261 -32 -96 -113
-132 -247 -110 -175 30 -213 98 -182 316 8 60 15 111 15 113 0 5 17 3 237 -25z"/>
<path d="M15730 18123 c-96 -5 -185 -16 -172 -20 8 -3 12 -29 12 -79 l0 -74
50 0 50 0 0 -50 0 -50 48 0 c27 0 84 3 126 7 l77 6 25 50 c14 27 24 50 22 52
-2 1 -30 8 -63 16 l-60 14 3 68 4 67 -34 -2 c-18 -1 -58 -3 -88 -5z"/>
<path d="M21750 18062 l0 -69 -60 -12 c-33 -7 -60 -14 -60 -17 0 -2 11 -26 24
-53 l25 -48 68 -6 c37 -4 95 -7 127 -7 l59 0 -6 50 -6 50 54 0 55 0 0 74 c0
50 4 76 13 79 13 5 -59 12 -205 22 l-88 6 0 -69z"/>
<path d="M16432 17853 c-80 -3 -93 -6 -88 -19 3 -9 6 -40 6 -70 l0 -54 46 0
46 0 -7 -40 -7 -40 106 0 106 0 20 40 c11 21 20 43 20 48 0 5 -21 13 -47 18
l-48 9 1 58 1 57 -31 -2 c-17 -1 -73 -4 -124 -5z"/>
<path d="M21011 17804 l4 -59 -52 -9 c-29 -5 -53 -12 -53 -15 0 -3 11 -24 23
-46 l23 -40 102 -3 102 -3 0 41 0 40 43 0 43 0 0 70 -1 70 -71 0 c-39 0 -93 3
-119 6 l-47 7 3 -59z"/>
<path d="M14845 17696 c-94 -6 -164 -15 -157 -19 8 -5 12 -35 12 -88 l0 -79
61 0 62 0 -6 -61 -5 -62 96 6 c53 4 117 7 142 7 46 0 46 0 73 56 15 30 25 59
22 63 -2 5 -22 12 -42 15 -21 4 -50 9 -65 12 l-27 5 6 80 c3 43 4 78 2 77 -2
0 -80 -6 -174 -12z"/>
<path d="M22580 17628 l0 -77 -57 -11 c-90 -17 -87 -13 -53 -80 l30 -60 49 0
c26 0 89 -3 139 -6 l92 -7 0 62 0 61 58 0 59 0 -5 73 c-3 57 -1 77 11 89 14
13 -2 16 -154 24 l-169 9 0 -77z"/>
<path d="M17037 17663 c-60 -4 -66 -6 -53 -19 11 -11 14 -27 9 -59 l-6 -45 43
0 43 0 -6 -35 -6 -35 82 0 c45 0 87 4 93 8 10 6 44 65 44 75 0 3 -21 8 -46 12
l-46 6 7 50 7 49 -49 -2 c-26 -1 -78 -3 -116 -5z"/>
<path d="M20400 17622 l0 -50 -40 -7 c-45 -8 -48 -17 -20 -62 l20 -33 85 0 85
0 0 35 c0 33 2 35 35 35 l35 0 0 54 c0 44 4 55 18 59 9 3 -5 5 -33 6 -27 1
-80 4 -117 8 l-68 6 0 -51z"/>
<path d="M17725 17450 c-44 -3 -74 -7 -67 -8 8 -1 12 -20 12 -52 l0 -50 35 0
c34 0 35 -1 35 -36 l0 -37 46 7 c26 3 63 6 84 6 32 0 38 4 53 35 18 38 19 37
-35 49 -26 6 -28 10 -28 51 0 51 16 47 -135 35z"/>
<path d="M19740 17417 c0 -46 -10 -57 -50 -57 -28 0 -33 -16 -15 -50 12 -24
22 -30 48 -30 17 0 56 -3 85 -6 l52 -7 0 37 c0 34 2 36 33 36 32 0 32 0 29 42
-3 32 0 45 14 55 15 11 9 13 -52 13 -38 0 -86 3 -106 6 l-38 7 0 -46z"/>
<path d="M8980 17278 c-432 -77 -786 -140 -786 -141 -1 -1 10 -67 25 -147 24
-130 29 -145 46 -143 30 2 1579 275 1584 279 2 2 -4 45 -13 96 -34 188 -36
198 -54 197 -9 -1 -370 -64 -802 -141z"/>
<path d="M15630 17411 c-49 -4 -80 -9 -72 -14 8 -5 12 -34 12 -81 l0 -73 48 1
47 1 3 -54 3 -53 31 6 c17 3 72 6 122 6 l92 0 27 55 27 55 -23 5 c-12 3 -40 9
-62 13 l-40 8 4 67 3 67 -68 -2 c-38 -1 -107 -4 -154 -7z"/>
<path d="M21750 17352 l0 -70 -48 -7 c-75 -10 -78 -14 -48 -74 l26 -51 88 0
c48 0 105 -3 126 -7 l39 -6 -5 51 c-3 29 -2 52 1 53 3 0 26 1 51 2 l45 2 5 80
c3 44 6 81 5 81 0 1 -64 5 -142 9 l-143 7 0 -70z"/>
<path d="M16390 17140 c-41 -4 -67 -7 -57 -8 14 -2 17 -12 17 -67 l0 -65 46 0
46 0 -7 -40 -7 -40 60 0 c32 0 80 3 106 6 42 6 49 11 67 45 10 21 19 40 19 43
0 2 -15 7 -32 11 -73 15 -71 12 -65 71 l6 54 -62 -2 c-34 -1 -96 -4 -137 -8z"/>
<path d="M21012 17095 l5 -54 -53 -11 -53 -11 21 -43 c19 -40 25 -44 66 -50
25 -3 71 -6 103 -6 l59 0 0 40 0 40 46 0 45 0 -6 53 c-5 41 -3 57 8 69 14 13
5 16 -81 21 -53 4 -112 7 -131 7 l-33 0 4 -55z"/>
<path d="M27960 17046 c0 -2 -43 -186 -95 -411 -52 -225 -94 -410 -92 -411 3
-3 261 -63 264 -61 1 1 28 118 61 260 33 142 62 260 65 263 6 7 418 -85 429
-95 3 -3 -18 -109 -48 -236 -29 -126 -53 -233 -54 -237 0 -8 37 -19 162 -46
l87 -19 25 111 c15 61 40 170 57 242 l30 130 179 -40 c98 -23 181 -43 184 -46
2 -3 -22 -120 -54 -260 -33 -140 -58 -255 -56 -257 8 -8 252 -60 257 -54 7 7
191 803 187 805 -2 1 -334 78 -738 170 -404 92 -761 173 -792 181 -32 7 -58
12 -58 11z"/>
<path d="M14875 17003 c-113 -7 -199 -16 -187 -20 8 -3 12 -31 12 -89 l0 -84
61 0 62 0 -6 -55 -6 -55 124 0 c68 0 134 4 147 9 23 8 78 105 66 116 -2 3 -33
11 -69 18 l-64 13 4 77 3 77 -48 -2 c-27 -1 -71 -3 -99 -5z"/>
<path d="M22580 16936 c0 -52 -4 -78 -12 -81 -7 -2 -39 -9 -70 -15 l-58 -11
30 -58 c16 -32 36 -61 45 -65 9 -3 73 -6 142 -6 l125 0 -4 55 -3 55 61 0 61 0
-5 77 c-4 64 -2 78 12 89 18 13 -8 17 -221 30 l-103 6 0 -76z"/>
<path d="M17012 16953 c-22 -3 -30 -8 -25 -16 4 -7 8 -32 8 -57 0 -45 0 -45
35 -45 33 0 35 -2 35 -35 0 -39 -10 -36 123 -32 56 2 59 3 76 38 9 20 15 38
13 40 -2 2 -21 7 -43 12 l-39 8 3 47 3 47 -78 -2 c-43 0 -93 -3 -111 -5z"/>
<path d="M20398 16913 c-3 -47 -3 -48 -45 -56 l-43 -8 20 -40 c18 -35 24 -39
58 -39 20 0 61 -3 90 -6 l52 -7 0 42 c0 42 0 42 33 39 l32 -3 3 53 c2 31 8 52
15 53 34 3 -78 18 -140 18 l-72 1 -3 -47z"/>
<path d="M17695 16740 c-27 -4 -44 -8 -37 -8 8 -1 12 -20 12 -52 l0 -50 35 0
c32 0 35 -2 35 -30 l0 -30 79 0 c79 0 79 0 100 34 12 18 21 36 21 38 0 3 -18
8 -40 12 -40 6 -40 6 -40 51 l0 45 -57 -2 c-32 0 -80 -4 -108 -8z"/>
<path d="M19740 16706 c0 -44 0 -44 -40 -51 -22 -4 -40 -8 -40 -11 0 -2 8 -19
17 -39 l17 -35 83 0 83 0 0 29 c0 26 4 30 32 33 32 3 32 4 29 51 -2 40 0 47
16 48 29 3 -87 17 -144 18 l-53 1 0 -44z"/>
<path d="M15750 16723 c-143 -10 -213 -17 -197 -21 16 -3 18 -13 15 -78 l-3
-74 53 0 52 0 0 -50 0 -50 64 0 c34 0 91 3 125 6 l62 7 25 48 c13 27 24 50 24
53 0 2 -29 9 -64 16 l-63 12 5 69 5 69 -29 -2 c-16 -1 -49 -3 -74 -5z"/>
<path d="M21750 16661 l0 -70 -60 -12 c-33 -6 -60 -13 -60 -16 0 -2 11 -25 24
-52 24 -46 27 -48 78 -54 29 -4 86 -7 127 -7 l74 0 -6 50 -6 50 54 0 55 0 0
74 c0 50 4 76 13 79 6 2 -28 7 -78 11 -49 4 -118 9 -152 12 l-63 6 0 -71z"/>
<path d="M16440 16451 c-52 -3 -94 -9 -92 -13 1 -5 2 -35 2 -68 l0 -60 46 0
46 0 -7 -40 -7 -40 106 0 106 0 20 40 c11 21 20 43 20 49 0 5 -23 12 -51 16
l-52 7 6 59 c5 59 5 59 -21 57 -15 -1 -70 -4 -122 -7z"/>
<path d="M21011 16404 l3 -59 -46 -10 c-26 -5 -49 -12 -52 -15 -3 -3 5 -23 17
-45 l23 -40 102 -3 102 -3 0 41 0 40 43 0 43 0 0 69 -1 68 -75 2 c-41 1 -94 4
-118 7 l-44 7 3 -59z"/>
<path d="M14951 16307 c-92 -6 -148 -13 -140 -18 10 -6 14 -31 13 -89 l-1 -80
59 0 60 0 -7 -62 -7 -61 68 6 c38 4 101 7 140 7 l70 0 25 57 c13 32 26 61 27
65 2 4 -7 8 -20 9 -12 0 -43 6 -68 12 l-45 12 3 78 c3 60 1 77 -10 75 -7 0
-82 -6 -167 -11z"/>
<path d="M22469 16313 c0 -4 0 -40 1 -80 l1 -71 -51 -11 c-28 -6 -58 -11 -65
-11 -21 0 -19 -12 12 -75 l27 -55 72 0 c39 0 99 -3 133 -6 l61 -7 0 62 0 61
55 0 55 0 0 80 c0 63 3 81 16 88 11 6 -29 12 -122 16 -76 4 -151 9 -166 12
-16 3 -28 2 -29 -3z"/>
<path d="M17047 16263 c-69 -3 -76 -6 -63 -19 11 -11 14 -27 9 -59 l-6 -45 43
0 43 0 -6 -35 -6 -35 89 0 90 0 20 40 c11 21 20 41 20 43 0 3 -21 8 -46 12
l-46 6 7 50 7 49 -39 -2 c-21 -1 -73 -4 -116 -5z"/>
<path d="M20400 16222 l0 -52 -40 -6 c-45 -7 -46 -10 -23 -59 l17 -35 88 0 88
0 0 35 c0 33 2 35 35 35 l35 0 0 50 c0 36 5 52 18 59 13 8 4 10 -39 11 -31 0
-84 3 -118 6 l-61 7 0 -51z"/>
<path d="M9600 16176 c-189 -40 -544 -158 -695 -231 -170 -82 -257 -173 -291
-306 -26 -102 -11 -172 112 -535 l86 -252 766 255 c422 141 770 258 774 262 9
8 -170 520 -212 606 -44 89 -118 165 -185 189 -66 24 -265 31 -355 12z m293
-313 c18 -11 43 -40 57 -65 29 -54 85 -216 77 -224 -6 -7 -1065 -364 -1077
-364 -13 0 -80 214 -80 254 0 110 103 189 380 289 141 51 349 113 425 127 73
13 180 5 218 -17z"/>
<path d="M27702 15988 c-29 -73 -52 -138 -52 -143 0 -6 78 -59 174 -118 l173
-109 -63 -160 c-35 -89 -65 -162 -66 -163 -2 -1 -93 15 -203 35 -110 20 -203
34 -207 31 -8 -7 -120 -293 -116 -296 2 -1 68 -11 148 -23 80 -12 444 -67 809
-122 366 -55 672 -100 680 -100 11 0 37 54 89 186 41 102 72 187 70 189 -13
12 -1359 916 -1370 920 -11 4 -28 -28 -66 -127z m802 -688 c159 -99 285 -180
280 -180 -5 0 -153 27 -328 60 -175 33 -323 60 -327 60 -5 0 -9 6 -9 12 0 17
84 228 90 228 3 0 135 -81 294 -180z"/>
<path d="M17730 16050 c-47 -3 -79 -7 -72 -8 8 -1 12 -20 12 -52 l0 -50 35 0
c34 0 35 -1 35 -36 l0 -37 61 7 c34 3 72 6 84 6 15 0 26 11 38 35 l17 35 -28
6 c-51 11 -52 12 -52 59 0 41 -2 45 -22 43 -13 -1 -61 -5 -108 -8z"/>
<path d="M19740 16017 c0 -46 -10 -57 -50 -57 -28 0 -33 -16 -15 -50 10 -20
23 -30 39 -30 13 0 51 -3 85 -6 l61 -7 0 37 c0 33 2 36 30 36 29 0 30 2 30 45
0 31 5 47 18 54 13 8 -3 10 -59 11 -42 0 -91 3 -108 6 l-31 7 0 -46z"/>
<path d="M15705 16021 c-50 -4 -73 -9 -62 -14 16 -6 18 -17 15 -77 l-3 -70 54
0 54 0 -7 -50 -7 -50 120 0 121 0 25 50 c27 53 26 70 -3 70 -9 0 -34 5 -54 10
l-37 11 6 64 6 65 -74 -2 c-41 -1 -110 -4 -154 -7z"/>
<path d="M21668 15963 c-3 -59 -6 -68 -23 -71 -11 -2 -37 -8 -57 -13 l-37 -10
26 -54 27 -55 118 0 118 0 0 50 0 50 50 0 50 0 0 75 c0 64 3 75 18 77 25 2
-153 16 -225 17 l-62 1 -3 -67z"/>
<path d="M16440 15750 c-36 -4 -57 -7 -47 -8 14 -2 17 -12 17 -67 l0 -65 40 0
40 0 0 -40 c0 -40 0 -40 39 -40 21 0 66 3 100 6 60 7 63 8 82 47 24 45 20 51
-43 61 l-40 7 7 54 6 55 -68 -2 c-37 -1 -97 -4 -133 -8z"/>
<path d="M20960 15706 c0 -59 1 -57 -67 -71 l-32 -6 21 -43 c21 -43 21 -43 87
-50 36 -3 83 -6 104 -6 l39 0 -7 39 -7 40 44 3 43 3 -3 51 c-2 36 1 56 12 66
13 13 5 16 -67 22 -45 3 -101 6 -124 6 l-43 0 0 -54z"/>
<path d="M17045 15563 c-18 -3 -20 -10 -17 -58 l4 -55 34 0 c33 0 34 -1 34
-41 0 -38 2 -41 23 -35 12 3 50 6 84 6 63 0 63 0 82 39 l20 39 -46 11 -45 12
5 44 5 45 -82 -1 c-44 -1 -90 -4 -101 -6z"/>
<path d="M20372 15525 c3 -46 -3 -55 -40 -55 -37 0 -44 -15 -26 -53 l18 -37
65 0 c36 0 76 -3 89 -6 20 -6 22 -3 22 35 0 40 1 41 34 41 l34 0 4 54 c3 53 2
55 -26 60 -16 3 -62 6 -103 6 l-75 0 4 -45z"/>
<path d="M15195 15505 c-93 -6 -162 -12 -153 -13 24 -3 32 -42 24 -113 l-6
-59 60 0 60 0 0 -61 0 -62 77 7 c42 3 105 6 139 6 l64 0 30 60 c34 67 37 63
-52 80 l-58 11 0 80 c0 43 -3 78 -7 77 -5 0 -84 -6 -178 -13z"/>
<path d="M22216 15442 l7 -80 -72 -12 c-39 -7 -71 -15 -71 -17 0 -2 14 -30 30
-63 l30 -60 64 0 c34 0 98 -3 140 -7 l78 -6 -4 59 -3 59 58 3 57 3 0 79 c0 63
3 81 16 88 11 6 -37 12 -142 16 -87 4 -167 10 -177 12 -16 5 -17 -1 -11 -74z"/>
<path d="M17700 15353 c-24 -4 -25 -7 -22 -58 l4 -55 35 0 c34 0 35 -1 31 -30
l-5 -31 81 3 81 3 17 35 16 35 -39 9 c-38 9 -39 10 -39 52 l0 44 -67 -1 c-38
-1 -79 -4 -93 -6z"/>
<path d="M19732 15318 c3 -40 2 -42 -32 -51 -19 -5 -36 -10 -38 -12 -2 -1 5
-19 14 -39 l18 -36 78 0 78 0 0 30 c0 27 3 30 30 30 29 0 30 1 30 50 0 33 4
50 13 51 31 3 -75 18 -131 18 l-63 1 3 -42z"/>
<path d="M10235 15079 c-99 -83 -384 -319 -632 -525 -249 -207 -455 -379 -458
-384 -5 -9 173 -360 183 -360 9 0 1582 398 1600 405 9 3 -8 45 -54 137 -36 73
-68 135 -70 137 -1 1 -91 -23 -200 -54 -108 -31 -200 -53 -204 -48 -4 4 -41
74 -83 154 l-75 146 164 128 c90 70 164 129 164 132 0 9 -145 283 -150 282 -3
0 -86 -68 -185 -150z m-130 -659 c30 -60 51 -111 47 -113 -15 -9 -635 -187
-638 -184 -5 5 517 407 528 407 4 0 33 -49 63 -110z"/>
<path d="M15980 15221 c-49 -4 -78 -9 -67 -13 14 -6 17 -20 17 -77 l0 -70 53
-3 52 -3 -4 -54 c-3 -52 -2 -54 20 -48 13 4 70 7 126 7 l103 0 26 51 c14 28
22 54 19 57 -4 4 -30 12 -58 17 l-52 10 -3 68 -3 67 -72 -2 c-40 -1 -110 -4
-157 -7z"/>
<path d="M21382 15164 l3 -68 -52 -11 c-28 -5 -55 -13 -59 -17 -9 -9 33 -98
49 -103 6 -2 65 -5 129 -7 l118 -3 -7 52 -6 53 57 0 57 0 -7 63 c-5 52 -3 66
11 80 15 16 14 17 -27 17 -24 0 -94 3 -156 7 l-113 6 3 -69z"/>
<path d="M16750 14953 c-44 -3 -60 -7 -50 -13 10 -7 15 -27 15 -67 l0 -58 43
-3 44 -3 -4 -40 -4 -39 47 0 c25 0 73 3 106 6 59 6 61 7 81 50 l21 43 -54 11
-53 11 5 55 6 54 -69 -2 c-38 -1 -98 -3 -134 -5z"/>
<path d="M20650 14906 c0 -59 1 -57 -67 -71 -18 -4 -33 -9 -33 -11 0 -3 9 -22
19 -43 19 -36 23 -38 82 -45 34 -3 82 -6 105 -6 l44 0 0 40 0 40 40 0 40 0 0
65 c0 55 3 65 18 67 25 2 -122 15 -190 17 l-58 1 0 -54z"/>
<path d="M27177 14758 c-19 -35 -51 -95 -71 -135 l-35 -71 252 -127 c560 -283
942 -478 951 -486 6 -5 -22 -70 -68 -159 -43 -83 -76 -153 -75 -155 6 -5 228
-115 233 -115 3 0 64 116 137 258 72 141 174 339 226 440 52 101 93 185 92
187 -6 5 -228 115 -233 115 -3 0 -37 -62 -76 -137 -38 -76 -74 -144 -79 -152
-9 -14 -125 42 -867 420 l-352 180 -35 -63z"/>
<path d="M15342 14763 c-80 -4 -82 -4 -71 -25 6 -11 9 -51 7 -92 l-3 -71 58
-3 58 -3 -6 -55 -7 -54 38 0 c22 0 83 3 138 7 l99 6 24 54 c14 30 21 58 17 62
-5 4 -35 13 -68 20 l-59 13 7 74 7 74 -78 -2 c-43 -1 -115 -4 -161 -5z"/>
<path d="M17375 14763 c-18 -3 -20 -10 -17 -58 l4 -55 34 0 c33 0 34 -1 34
-41 0 -41 0 -41 31 -35 17 3 58 6 90 6 57 0 58 1 75 35 19 41 17 45 -28 54
-31 6 -33 9 -36 54 l-3 47 -82 -1 c-45 -1 -91 -4 -102 -6z"/>
<path d="M20038 14723 c-3 -47 -3 -48 -45 -56 l-43 -8 20 -40 c20 -39 21 -39
79 -39 32 0 73 -3 91 -6 l32 -7 -4 39 c-3 38 -2 39 34 42 l36 3 4 54 3 53 -35
6 c-19 3 -65 6 -102 6 l-67 0 -3 -47z"/>
<path d="M22022 14697 l5 -76 -31 -6 c-17 -4 -47 -11 -68 -16 l-36 -9 26 -59
25 -58 96 -7 c53 -3 114 -6 137 -6 l41 0 -5 55 -4 55 55 0 56 0 3 93 c2 50 3
93 3 94 0 0 -69 4 -154 8 l-154 8 5 -76z"/>
<path d="M18050 14550 c-19 -4 -29 -8 -22 -9 10 -1 13 -15 11 -48 -3 -47 -3
-48 29 -51 28 -3 32 -7 32 -33 l0 -29 83 0 83 0 17 35 c9 20 17 37 17 39 0 3
-18 7 -40 11 -40 7 -40 7 -40 51 l0 44 -67 -1 c-38 -1 -84 -5 -103 -9z"/>
<path d="M19374 14516 l7 -43 -41 -7 c-44 -7 -47 -13 -25 -56 15 -30 17 -30
100 -30 l85 0 -6 30 c-6 29 -5 30 30 30 l36 0 0 50 c0 33 4 50 13 51 29 3 -84
18 -142 18 l-63 1 6 -44z"/>
<path d="M16162 14483 c-79 -4 -82 -5 -71 -24 6 -12 9 -49 7 -82 l-3 -62 48
-3 47 -3 0 -51 0 -51 53 7 c28 3 81 6 117 6 l66 0 26 54 c30 61 30 60 -46 71
l-46 7 0 69 0 69 -57 -2 c-32 -1 -95 -4 -141 -5z"/>
<path d="M21232 14424 l3 -68 -53 -12 c-30 -7 -55 -14 -57 -16 -2 -2 7 -27 20
-56 l24 -52 68 0 c37 0 92 -3 122 -7 l53 -6 -7 51 -7 52 50 0 50 0 4 83 c2 45
3 83 3 83 0 1 -62 5 -138 9 l-138 7 3 -68z"/>
<path d="M16885 14211 c-47 -4 -73 -9 -62 -13 13 -6 17 -20 17 -68 l0 -60 41
0 42 0 -6 -40 -5 -40 73 0 c109 0 130 6 149 46 23 49 21 52 -26 61 l-43 9 -3
57 -3 57 -47 -2 c-26 -1 -83 -4 -127 -7z"/>
<path d="M20540 14167 l0 -56 -37 -10 c-21 -6 -43 -11 -50 -11 -18 0 22 -83
44 -91 10 -4 55 -8 101 -8 l82 -1 0 40 0 40 40 0 40 0 0 64 c0 42 4 66 13 69
6 3 -9 6 -34 6 -25 1 -80 4 -122 7 l-77 7 0 -56z"/>
<path d="M10881 14051 c-58 -37 -106 -72 -108 -77 -1 -5 62 -110 141 -234 80
-124 144 -225 143 -226 -17 -14 -370 -234 -375 -234 -5 0 -179 264 -262 399
-6 11 -30 0 -115 -54 -63 -40 -104 -72 -101 -80 2 -7 61 -101 131 -210 70
-109 122 -201 117 -204 -124 -83 -304 -191 -311 -187 -5 3 -71 103 -146 221
-79 123 -143 214 -150 212 -17 -7 -215 -136 -215 -141 0 -12 443 -691 451
-691 19 0 1368 860 1365 871 -7 20 -449 704 -455 703 -3 0 -53 -31 -110 -68z"/>
<path d="M15453 14093 c-86 -4 -110 -12 -82 -29 8 -5 10 -32 6 -85 l-5 -79 60
0 59 0 -6 -55 -7 -55 59 0 c33 0 95 3 138 7 l77 6 24 54 c14 30 22 58 19 63
-2 4 -26 11 -51 15 -79 11 -77 9 -70 92 l7 73 -68 -2 c-37 -1 -110 -4 -160 -5z"/>
<path d="M21922 14027 l5 -76 -51 -11 c-93 -21 -87 -14 -58 -79 l26 -58 80 -7
c45 -3 106 -6 137 -6 l56 0 -5 55 -4 55 55 0 56 0 3 93 c2 50 3 93 3 93 0 1
-69 5 -154 9 l-154 7 5 -75z"/>
<path d="M26671 13857 c-85 -133 -187 -292 -227 -354 l-73 -112 102 -65 c57
-36 110 -68 119 -71 12 -5 49 47 159 219 79 124 147 226 150 226 4 0 353 -217
376 -234 1 -1 -58 -96 -132 -211 l-134 -209 89 -58 c138 -89 124 -86 163 -26
19 29 75 118 126 198 52 80 97 149 102 154 12 14 321 -183 315 -201 -3 -7 -67
-109 -141 -225 -75 -116 -133 -214 -128 -218 30 -28 217 -140 223 -133 14 16
429 669 435 684 3 10 -98 79 -353 241 -196 124 -503 319 -681 432 -179 113
-327 206 -330 206 -3 0 -75 -109 -160 -243z"/>
<path d="M17465 14020 c-27 -4 -42 -8 -32 -8 14 -2 17 -12 17 -57 l0 -55 36 0
36 0 -7 -37 -6 -36 68 6 c37 4 77 7 89 7 13 0 26 12 37 35 9 20 17 38 17 40 0
3 -18 8 -40 11 l-40 7 0 48 0 49 -62 -2 c-35 0 -85 -4 -113 -8z"/>
<path d="M19960 13981 l0 -48 -40 -7 c-22 -3 -40 -9 -40 -11 0 -3 7 -21 14
-40 11 -26 21 -35 39 -35 13 0 52 -3 86 -6 l61 -7 0 37 c0 35 1 36 35 36 l35
0 0 55 c0 37 4 55 13 56 25 3 -90 17 -145 18 l-58 1 0 -49z"/>
<path d="M16280 13813 l-85 -4 0 -84 0 -85 50 0 50 0 -4 -52 -3 -51 68 6 c38
4 92 7 119 7 l51 0 27 55 26 54 -59 12 -60 12 0 68 0 69 -47 -2 c-27 -1 -86
-4 -133 -5z"/>
<path d="M18115 13810 c-27 -4 -44 -8 -37 -8 8 -1 12 -20 12 -52 0 -49 1 -50
30 -50 27 0 30 -3 30 -30 l0 -30 80 0 80 0 15 37 c8 20 14 37 13 38 -2 1 -19
6 -38 11 -33 9 -34 11 -32 52 l4 42 -54 -2 c-29 0 -75 -4 -103 -8z"/>
<path d="M19330 13775 c0 -43 -1 -44 -35 -51 -39 -7 -41 -13 -20 -54 15 -29
17 -30 94 -30 l78 0 -5 30 c-4 29 -3 30 32 30 l36 0 -2 46 c-1 27 4 49 11 53
12 8 -88 21 -156 21 -32 0 -33 -1 -33 -45z"/>
<path d="M21135 13752 l7 -70 -49 -7 c-74 -10 -76 -13 -48 -73 l24 -52 53 0
c29 0 84 -3 122 -7 l68 -6 -7 51 -7 52 51 0 51 0 0 69 c0 38 2 76 5 84 3 7 0
14 -7 14 -7 0 -71 3 -141 7 l-128 8 6 -70z"/>
<path d="M16995 13541 c-46 -4 -75 -9 -67 -14 7 -5 12 -31 12 -68 l0 -59 41 0
41 0 -4 -40 -4 -40 98 0 98 0 20 40 c11 21 20 43 20 48 0 5 -19 13 -42 18
l-43 9 -3 58 -3 57 -42 -2 c-23 -1 -78 -4 -122 -7z"/>
<path d="M20438 13494 l-3 -58 -47 -11 -46 -10 21 -45 22 -45 98 -3 97 -3 0
41 0 40 40 0 40 0 0 64 c0 42 4 66 13 69 6 3 -13 6 -43 6 -30 1 -85 4 -122 7
l-67 7 -3 -59z"/>
<path d="M17570 13350 c-30 -4 -47 -7 -37 -8 14 -2 17 -12 17 -57 l0 -55 35 0
c36 0 36 0 29 -35 l-6 -35 38 0 c22 0 62 3 90 6 46 6 53 10 68 41 9 18 16 35
16 37 0 3 -18 7 -40 11 l-40 7 0 49 0 49 -57 -2 c-32 -1 -83 -4 -113 -8z"/>
<path d="M19860 13311 l0 -48 -40 -7 c-44 -7 -47 -13 -25 -55 15 -30 56 -41
146 -41 38 0 39 1 39 35 0 33 2 35 35 35 l35 0 0 55 c0 37 4 55 13 56 20 3
-104 17 -155 18 l-48 1 0 -49z"/>
<path d="M11550 13252 c0 -50 -51 -122 -158 -224 -266 -254 -297 -298 -297
-418 0 -36 4 -77 9 -92 l8 -28 -46 26 c-56 31 -129 35 -205 9 -66 -21 -197
-119 -250 -186 -67 -84 -86 -133 -86 -220 0 -71 3 -83 45 -164 36 -70 86 -135
250 -326 113 -131 207 -238 211 -239 4 0 1098 934 1200 1025 l36 32 -89 104
c-49 57 -93 105 -98 107 -7 3 -378 -308 -525 -439 -21 -18 -22 -18 -84 56
-144 171 -157 255 -55 360 16 17 89 84 162 149 134 120 202 192 202 216 0 10
-131 167 -212 255 -18 19 -18 19 -18 -3z m-403 -978 c29 -14 202 -189 211
-213 4 -11 -336 -303 -347 -299 -5 2 -41 41 -79 87 -142 168 -147 240 -23 353
92 84 165 106 238 72z"/>
<path d="M18225 13140 c-33 -4 -54 -7 -47 -8 8 -1 12 -20 12 -52 0 -49 1 -50
30 -50 27 0 30 -3 30 -30 l0 -30 81 0 80 0 15 35 c7 19 14 36 14 38 0 3 -17 7
-39 11 l-39 6 6 45 5 45 -44 -2 c-24 -1 -71 -4 -104 -8z"/>
<path d="M19230 13107 c0 -45 -1 -46 -35 -53 -39 -7 -41 -13 -20 -54 15 -29
17 -30 94 -30 l78 0 -5 30 c-4 29 -3 30 32 30 l36 0 -2 46 c-1 30 4 49 13 55
10 6 4 9 -21 9 -19 0 -65 3 -102 7 l-68 6 0 -46z"/>
<path d="M26186 13079 c-155 -37 -345 -228 -398 -402 -56 -185 27 -374 220
-500 168 -110 254 -112 610 -16 266 71 360 70 421 -6 54 -69 48 -145 -16 -207
-90 -85 -154 -82 -280 14 l-52 39 -34 -38 c-71 -79 -147 -171 -147 -177 0 -11
54 -56 118 -98 87 -58 168 -81 266 -76 117 7 178 38 286 147 169 170 209 336
123 511 -38 77 -143 179 -228 221 -68 33 -73 34 -180 32 -95 -1 -138 -8 -320
-52 -254 -63 -318 -70 -379 -47 -50 19 -132 100 -142 141 -26 102 70 235 170
235 49 0 101 -28 195 -106 38 -31 72 -56 75 -55 4 0 50 51 103 112 l97 111
-31 27 c-99 84 -124 102 -183 134 -107 59 -203 77 -294 56z"/>
<path d="M15031 10840 c-156 -42 -257 -132 -306 -270 -45 -129 -39 -295 15
-407 42 -84 135 -169 356 -323 282 -196 323 -243 324 -371 0 -124 -65 -195
-189 -206 -64 -6 -115 7 -155 38 -36 28 -55 103 -61 239 l-5 115 -164 3 -165
2 -7 -36 c-9 -50 3 -207 21 -280 37 -141 107 -234 218 -289 221 -109 549 -76
705 69 120 112 170 318 127 519 -34 162 -118 253 -417 455 -267 180 -321 243
-304 356 18 117 157 174 276 114 65 -33 90 -84 99 -201 l6 -92 160 0 160 0 -2
95 c-4 160 -50 277 -142 363 -93 87 -179 117 -351 123 -103 3 -138 1 -199 -16z"/>
<path d="M20215 10798 c-36 -167 -184 -266 -438 -293 l-58 -7 3 -101 3 -102
203 -3 202 -2 0 -630 0 -630 155 0 155 0 1 865 c0 476 1 880 2 898 l1 32 -111
3 -111 3 -7 -33z"/>
<path d="M21275 10818 c-75 -14 -168 -63 -210 -109 -91 -101 -125 -228 -132
-495 -8 -279 23 -407 122 -513 54 -58 116 -87 215 -101 120 -17 227 9 287 69
17 17 35 31 39 31 3 0 4 -55 0 -122 -12 -217 -35 -285 -106 -320 -95 -48 -210
12 -210 110 l0 32 -161 0 -162 0 7 -62 c19 -161 94 -256 247 -309 88 -31 305
-34 389 -5 78 27 132 60 179 111 122 132 146 285 138 864 -5 400 -16 493 -71
605 -53 109 -154 184 -285 212 -74 15 -210 17 -286 2z m257 -287 c45 -51 53
-97 53 -321 0 -225 -9 -272 -61 -321 -22 -21 -35 -24 -99 -24 -67 0 -76 2
-104 29 -46 44 -56 103 -56 326 1 214 9 262 54 312 50 56 163 55 213 -1z"/>
<path d="M23696 10814 c-136 -29 -218 -89 -271 -197 -44 -89 -65 -185 -65
-299 l0 -88 161 0 161 0 -6 38 c-9 52 10 189 32 231 10 20 34 47 53 59 29 21
43 23 103 20 63 -4 71 -6 101 -40 70 -76 73 -256 7 -387 -20 -40 -75 -103
-203 -230 -132 -132 -192 -201 -242 -276 -115 -174 -165 -318 -174 -502 l-6
-113 497 0 496 0 0 145 0 145 -320 0 c-233 0 -320 3 -320 11 0 19 57 107 126
196 35 44 138 159 229 255 91 95 182 198 202 228 53 78 92 199 99 307 20 275
-98 447 -341 498 -88 18 -229 18 -319 -1z"/>
<path d="M13512 9928 l3 -893 473 -3 472 -2 0 150 0 150 -305 0 -305 0 0 250
0 250 275 0 275 0 0 140 0 140 -275 0 -275 0 0 205 0 205 298 2 297 3 3 148 3
147 -471 0 -470 0 2 -892z"/>
<path d="M15910 10675 l0 -145 193 -2 192 -3 3 -747 2 -748 165 0 165 0 2 748
3 747 193 0 192 0 0 148 0 147 -555 0 -555 0 0 -145z"/>
<path d="M17202 9928 l3 -893 325 1 c440 1 526 15 625 106 40 36 66 73 95 132
73 148 89 249 97 611 10 476 -22 649 -150 791 -51 57 -117 96 -203 120 -49 14
-121 18 -427 21 l-367 5 2 -894z m648 610 c70 -30 118 -118 142 -261 17 -99
16 -586 -1 -692 -25 -155 -65 -234 -135 -266 -34 -15 -66 -19 -183 -19 l-143
0 0 623 c0 343 3 627 8 631 13 14 274 0 312 -16z"/>
<path d="M22140 10650 l0 -150 335 0 c184 0 335 -2 335 -4 0 -3 -33 -76 -74
-163 -137 -293 -235 -565 -301 -835 -33 -135 -75 -380 -75 -441 l0 -27 173 2
172 3 8 80 c42 452 172 916 363 1297 l64 128 0 130 0 130 -500 0 -500 0 0
-150z"/>
<path d="M18957 10343 c-2 -5 -2 -14 -1 -20 1 -7 2 -76 3 -153 l1 -141 148 3
147 3 3 158 3 157 -150 0 c-82 0 -152 -3 -154 -7z"/>
<path d="M18960 9348 c0 -2 -1 -73 -1 -158 l-1 -155 148 0 149 0 3 158 3 157
-151 0 c-82 0 -150 -1 -150 -2z"/>
<path d="M5064 24980 c-122 -18 -238 -106 -317 -241 -39 -67 -140 -315 -134
-332 3 -11 1326 -519 1340 -514 14 4 106 251 133 356 39 153 28 239 -43 341
-55 78 -140 142 -278 210 -275 134 -544 203 -701 180z"/>
<path d="M32945 23979 c-225 -30 -516 -143 -658 -254 -184 -145 -241 -375
-150 -605 56 -140 134 -229 252 -288 70 -35 79 -36 195 -40 142 -4 258 16 451
78 275 90 432 200 504 354 55 116 64 222 31 350 -76 300 -306 449 -625 405z"/>
<path d="M4398 21621 c-251 -31 -459 -58 -462 -61 -3 -4 188 -104 425 -224
237 -120 433 -216 436 -212 3 3 25 115 49 248 24 134 46 258 49 276 5 29 4 32
-17 31 -13 -1 -229 -27 -480 -58z"/>
<path d="M33342 20599 c-112 -15 -255 -55 -330 -91 -93 -46 -183 -133 -226
-218 -76 -153 -72 -361 11 -524 35 -68 122 -157 185 -189 219 -110 719 -98
975 24 81 38 184 137 226 216 53 100 70 253 43 384 -41 191 -177 329 -381 385
-72 20 -389 28 -503 13z"/>
<path d="M30640 11509 c-121 -24 -222 -105 -333 -267 -84 -125 -197 -302 -197
-310 0 -7 1202 -772 1217 -774 4 -1 57 75 116 168 220 343 254 461 177 619
-58 119 -162 222 -356 350 -193 128 -334 193 -469 215 -69 11 -93 11 -155 -1z"/>
<path d="M10092 8185 c-123 -34 -229 -103 -348 -227 -143 -147 -251 -323 -290
-468 -22 -86 -23 -227 0 -305 56 -193 220 -352 420 -410 89 -26 260 -18 344
17 148 61 288 177 411 342 205 273 251 503 144 725 -62 129 -210 259 -359 313
-76 28 -244 35 -322 13z"/>
<path d="M23685 5453 c4 -214 10 -404 14 -424 l6 -36 273 105 c150 58 271 109
270 113 -4 10 -560 629 -565 629 -3 0 -1 -174 2 -387z"/>
<path d="M21380 5366 c-92 -14 -373 -67 -378 -71 -4 -3 268 -1408 274 -1414 5
-6 263 41 414 75 210 47 328 135 372 277 55 173 10 577 -90 823 -58 143 -137
234 -250 287 -56 26 -78 31 -161 33 -53 2 -134 -3 -181 -10z"/>
<path d="M16510 5342 c-227 -76 -360 -242 -434 -543 -83 -337 -38 -597 134
-769 111 -111 259 -170 424 -170 252 0 455 151 556 411 77 199 110 479 76 637
-43 205 -174 351 -371 418 -107 37 -299 44 -385 16z"/>
</g>
</svg>
